<svg width="20" height="20" viewBox="0 0 20 20" fill="none" xmlns="http://www.w3.org/2000/svg">
<rect x="0.5" y="0.5" width="19" height="19" rx="7.5" fill="#FFF9F9" stroke="#E74040"/>
<path d="M11.043 10.25L13.1523 8.16016C13.2695 8.04297 13.2695 7.82812 13.1523 7.71094L12.6641 7.22266C12.5469 7.10547 12.332 7.10547 12.2148 7.22266L10.125 9.33203L8.01562 7.22266C7.89844 7.10547 7.68359 7.10547 7.56641 7.22266L7.07812 7.71094C6.96094 7.82812 6.96094 8.04297 7.07812 8.16016L9.1875 10.25L7.07812 12.3594C6.96094 12.4766 6.96094 12.6914 7.07812 12.8086L7.56641 13.2969C7.68359 13.4141 7.89844 13.4141 8.01562 13.2969L10.125 11.1875L12.2148 13.2969C12.332 13.4141 12.5469 13.4141 12.6641 13.2969L13.1523 12.8086C13.2695 12.6914 13.2695 12.4766 13.1523 12.3594L11.043 10.25Z" fill="#E74040"/>
</svg>
