<?xml version="1.0" standalone="no"?>
<!DOCTYPE svg PUBLIC "-//W3C//DTD SVG 20010904//EN"
 "http://www.w3.org/TR/2001/REC-SVG-20010904/DTD/svg10.dtd">
<svg version="1.0" xmlns="http://www.w3.org/2000/svg"
 width="700.000000pt" height="700.000000pt" viewBox="0 0 700.000000 700.000000"
 preserveAspectRatio="xMidYMid meet">
<metadata>
Created by potrace 1.14, written by Peter Selinger 2001-2017
</metadata>
<g transform="translate(0.000000,700.000000) scale(0.100000,-0.100000)"
fill="#000000" stroke="none">
<path d="M3280 6994 c-19 -2 -87 -9 -150 -15 -941 -89 -1835 -593 -2420 -1364
-249 -328 -453 -730 -563 -1110 -224 -773 -188 -1572 105 -2310 362 -912 1118
-1645 2041 -1979 339 -123 638 -184 1019 -208 689 -43 1428 144 2022 510 1194
736 1831 2105 1627 3498 -117 796 -516 1545 -1106 2077 -540 487 -1215 795
-1935 882 -126 15 -560 28 -640 19z m477 -285 c650 -53 1244 -287 1753 -690
135 -106 403 -374 509 -509 478 -604 721 -1338 698 -2105 -22 -710 -259 -1362
-697 -1915 -106 -135 -375 -404 -509 -509 -510 -404 -1100 -637 -1750 -692
-174 -14 -517 -7 -679 16 -598 82 -1126 306 -1593 676 -134 105 -403 374 -508
508 -379 479 -608 1031 -683 1646 -20 167 -17 596 5 765 119 888 563 1652
1271 2183 613 461 1410 690 2183 626z"/>
<path d="M3822 4650 l3 -45 144 -18 c80 -10 146 -19 148 -21 4 -4 4 -2088 0
-2093 -2 -2 -55 -8 -118 -13 -190 -17 -179 -13 -179 -66 l0 -46 648 5 c390 3
681 9 732 16 661 87 1006 380 1086 922 22 155 15 450 -16 592 -51 242 -151
423 -295 536 -164 130 -366 212 -630 258 -88 15 -184 17 -813 18 l-713 0 3
-45z m1303 -80 c103 -7 150 -15 225 -40 199 -67 297 -140 368 -278 124 -240
179 -551 154 -866 -27 -326 -102 -526 -257 -682 -192 -194 -405 -246 -973
-236 l-152 2 2 1048 3 1047 65 6 c106 9 425 9 565 -1z"/>
<path d="M690 4651 c0 -45 -9 -42 178 -62 l112 -12 0 -41 c1 -77 -62 -1961
-65 -1981 -3 -16 -34 -30 -147 -70 l-143 -50 0 -40 0 -40 358 -3 357 -2 0 43
0 44 -135 38 c-74 21 -140 42 -147 46 -9 6 -5 200 21 861 18 469 34 854 35
855 1 1 191 -423 421 -942 l420 -945 91 0 91 0 350 952 c328 889 351 949 357
908 6 -48 86 -1648 86 -1716 l0 -41 -130 -13 -130 -13 0 -39 0 -38 440 0 440
0 0 44 0 44 -123 7 c-68 4 -128 10 -133 13 -6 4 -23 391 -43 937 -17 512 -35
987 -38 1056 l-6 125 114 13 c199 21 189 18 189 62 l0 39 -327 0 -328 0 -354
-966 c-195 -531 -358 -967 -361 -969 -4 -3 -193 432 -421 965 l-414 970 -307
0 -308 0 0 -39z"/>
</g>
</svg>
