<svg width="438" height="361" viewBox="0 0 438 361" fill="none" xmlns="http://www.w3.org/2000/svg">
<g clip-path="url(#clip0_4_248)">
<path opacity="0.1" d="M145.617 360.797C166.947 360.797 184.239 357.566 184.239 353.579C184.239 349.593 166.947 346.361 145.617 346.361C124.287 346.361 106.995 349.593 106.995 353.579C106.995 357.566 124.287 360.797 145.617 360.797Z" fill="#404040"/>
<path opacity="0.1" d="M355.56 361C382.177 361 403.754 357.769 403.754 353.782C403.754 349.796 382.177 346.564 355.56 346.564C328.943 346.564 307.366 349.796 307.366 353.782C307.366 357.769 328.943 361 355.56 361Z" fill="#404040"/>
<path opacity="0.1" d="M5.4857 155.978H45.7129V219.776H8.43069C8.3316 220.431 8.23647 221.09 8.13342 221.75H45.7129V273.201C45.6455 273.178 45.586 273.151 45.5226 273.123C44.4603 272.634 43.406 272.117 42.3517 271.564L41.6779 271.209C40.6209 270.628 39.5639 270.013 38.5069 269.364C38.1383 269.138 37.7697 268.903 37.405 268.663C31.5372 264.838 26.2065 259.992 21.598 254.292C21.4632 254.14 21.3364 253.978 21.2016 253.831C20.5595 253.019 19.9293 252.198 19.3189 251.359L18.645 250.436C17.9237 249.408 17.226 248.352 16.5483 247.282C16.4492 247.125 16.354 246.968 16.251 246.821C13.4945 242.373 11.2057 237.558 9.4335 232.477C9.37801 232.325 9.33044 232.159 9.27892 232.016C8.73457 230.387 8.25233 228.742 7.83218 227.081C7.64985 226.385 7.47545 225.698 7.32483 224.974C7.26934 224.761 7.22178 224.554 7.17818 224.346C4.92682 214.122 4.66125 203.5 4.66125 192.952C4.66125 191.721 4.66125 190.485 4.66125 189.263C4.66125 184.997 4.70486 180.703 4.76827 176.414C4.76827 175.302 4.80791 174.195 4.82773 173.079C4.88322 170.248 4.96249 167.416 5.06555 164.584C5.08933 163.795 5.12104 163.011 5.15671 162.227C5.15671 161.775 5.17653 161.323 5.21617 160.871C5.3113 159.229 5.39057 157.601 5.4857 155.978Z" fill="#404040"/>
<path opacity="0.1" d="M45.7129 84.9439H23.6472C27.2341 78.4113 31.1532 72.134 35.3836 66.1454C38.6615 61.4596 42.1218 56.8937 45.7129 52.4938V84.9439Z" fill="#404040"/>
<path opacity="0.1" d="M45.7129 86.9178V154.004H5.61253C5.61253 153.81 5.64028 153.612 5.65217 153.418C5.68784 152.888 5.72351 152.358 5.76315 151.832C5.80675 151.214 5.85432 150.591 5.90584 149.987C5.95737 149.383 6.01286 148.645 6.07232 147.976C6.13177 147.307 6.18726 146.629 6.25465 145.961C6.32203 145.292 6.38148 144.623 6.45283 143.959C6.52417 143.295 6.58759 142.622 6.6629 141.957C6.72236 141.404 6.78577 140.855 6.84919 140.302C6.94036 139.522 7.03549 138.738 7.13854 137.963C7.13854 137.848 7.16629 137.728 7.18214 137.618C7.90558 131.946 8.89132 126.323 10.1351 120.775C11.437 114.954 13.0994 109.251 15.1095 103.71C17.2457 97.9136 19.747 92.3087 22.5928 86.9409L45.7129 86.9178Z" fill="#404040"/>
<path opacity="0.1" d="M55.3168 155.973V219.776H141.237V155.973H55.3168ZM55.3168 221.745V276.536C55.8083 276.655 56.2958 276.771 56.7794 276.868C57.4374 277.015 58.0914 277.149 58.7612 277.264C58.8881 277.287 59.0189 277.31 59.1576 277.324C59.4192 277.375 59.6887 277.416 59.9503 277.458C60.6123 277.564 61.2702 277.652 61.9321 277.721C62.2453 277.758 62.5624 277.79 62.8795 277.818L63.6444 277.887C64.0606 277.924 64.4728 277.951 64.8811 277.965C65.1348 277.965 65.3885 277.993 65.6501 278.002C65.8482 278.002 66.0464 278.002 66.2525 278.002C66.4586 278.002 66.752 278.002 67.0017 278.002C67.3425 278.002 67.6834 278.002 68.0203 278.002H68.4761C68.817 278.002 69.1579 278.002 69.4948 277.965H69.5186C69.7524 277.965 69.9903 277.965 70.2281 277.928C70.2941 277.933 70.3603 277.933 70.4263 277.928C70.6244 277.928 70.8226 277.928 71.0129 277.896H71.1516L72.4794 277.776C72.9154 277.73 73.3554 277.67 73.7993 277.615L74.7031 277.49C78.3797 276.891 82.0154 275.991 85.5833 274.797C93.5978 272.196 101.438 268.557 109.448 265.891C119.806 262.455 131.249 260.767 141.257 264.969V221.745H55.3168ZM141.237 84.9437V0.00439909C131.83 -0.114186 122.449 1.16602 113.321 3.81392C91.5645 10.1739 72.0434 23.9684 55.3168 41.5862V84.9391H59.6293V86.9084H55.3168V154.004H141.237V86.913H77.3349V84.9437H141.237ZM251.597 56.2524C246.214 56.031 240.864 54.0479 236.024 50.9855C226.769 45.1282 219.377 36.0841 211.116 28.4512C193.954 12.5537 172.669 2.96069 150.833 0.5809V84.9437H273.488L273.794 84.5701L251.597 56.2524ZM262.771 53.9464L274.618 69.0738V49.9801C270.65 50.552 267.174 51.9125 262.787 53.9279L262.771 53.9464ZM274.618 290.141V221.745H249.374C249.306 221.454 249.239 221.159 249.159 220.864C249.235 221.159 249.298 221.454 249.37 221.745H150.849V271.209C151.784 272.016 152.708 272.864 153.623 273.727C154.61 274.649 155.585 275.622 156.564 276.577L157.551 277.527C158.023 277.988 158.499 278.45 158.978 278.883C159.93 279.781 160.89 280.666 161.86 281.54C162.34 282.001 162.831 282.416 163.319 282.849C171.058 289.735 179.223 295.949 187.747 301.44C189.657 302.67 191.585 303.871 193.53 305.042C194.826 305.813 196.13 306.578 197.438 307.321C199.404 308.437 201.386 309.513 203.383 310.549C221.801 320.169 241.276 326.77 261.253 330.164C265.689 330.926 270.143 331.526 274.614 331.963V290.136H275.01L274.618 290.141ZM150.849 86.913V154.004H274.634V86.913H150.849ZM150.849 155.973V219.776H274.634V155.973H150.849ZM284.242 49.8971V71.1953L299.363 51.8894C294.353 50.9486 289.313 50.2768 284.242 49.874V49.8971ZM284.242 155.996V219.776H404.638V155.973L284.242 155.996ZM404.198 295.205L404.622 221.745H284.242V332.696C291.997 333.075 299.764 332.967 307.508 332.373V332.373H307.643C311.343 332.102 315.025 331.709 318.69 331.192H318.773C338.326 328.545 357.445 322.609 375.533 313.57M427.853 166.479C427.401 165.239 426.93 164.007 426.45 162.79C425.554 160.484 424.607 158.242 423.632 156.001H414.238V219.776H437.988C437.976 201.715 434.048 183.267 427.865 166.456L427.853 166.479ZM414.238 221.768V284.952C420.929 277.49 426.581 268.953 430.651 259.194C435.546 247.443 437.786 234.719 437.968 221.759L414.238 221.768ZM414.238 137.405V154.008H422.752C420.176 148.293 417.338 142.743 414.25 137.382L414.238 137.405ZM332.587 62.414C331.96 62.1373 331.334 61.856 330.704 61.5839C324.057 58.7278 317.265 56.3527 310.366 54.4722L287.226 84.0213L286.783 84.5701L287.08 84.9483H369.437C357.967 75.7614 345.601 68.1894 332.598 62.391L332.587 62.414ZM371.851 86.9361H285.93L284.242 88.7347V154.004H299.042H299.066H404.654V122.389C395.102 108.947 384.078 97.0205 371.862 86.913L371.851 86.9361Z" fill="black"/>
<path opacity="0.1" d="M45.7129 120.756V154.004H5.61253C5.61253 153.81 5.64028 153.612 5.65217 153.418C5.68784 152.888 5.72351 152.358 5.76315 151.832C5.80675 151.214 5.85432 150.591 5.90584 149.987C5.95737 149.383 6.01286 148.645 6.07232 147.976C6.13177 147.307 6.18726 146.629 6.25465 145.961C6.32203 145.292 6.38148 144.623 6.45283 143.959C6.52417 143.295 6.58759 142.622 6.6629 141.957C6.72236 141.404 6.78577 140.855 6.84919 140.302C6.94036 139.522 7.03549 138.738 7.13854 137.963C7.13854 137.848 7.16629 137.728 7.18214 137.618C7.90558 131.946 8.89132 126.323 10.1351 120.775L45.7129 120.756Z" fill="#404040"/>
<path opacity="0.1" d="M5.4857 155.978H45.7129V219.776H8.43069C8.3316 220.431 8.23647 221.09 8.13342 221.75H45.7129V273.201C45.6455 273.178 45.586 273.151 45.5226 273.123C44.4603 272.634 43.406 272.117 42.3517 271.564L41.6779 271.209C40.6209 270.628 39.5639 270.013 38.5069 269.364C38.1383 269.138 37.7697 268.903 37.405 268.663C31.5372 264.838 26.2065 259.992 21.598 254.292C21.4632 254.14 21.3364 253.978 21.2016 253.831C20.5595 253.019 19.9293 252.198 19.3189 251.359L18.645 250.436C17.9237 249.408 17.226 248.352 16.5483 247.282C16.4492 247.125 16.354 246.968 16.251 246.821C13.4945 242.373 11.2057 237.558 9.4335 232.477C9.37801 232.325 9.33044 232.159 9.27892 232.016C8.73457 230.387 8.25233 228.742 7.83218 227.081C7.64985 226.385 7.47545 225.698 7.32483 224.974C7.26934 224.761 7.22178 224.554 7.17818 224.346C4.92682 214.122 4.66125 203.5 4.66125 192.952C4.66125 191.721 4.66125 190.485 4.66125 189.263C4.66125 184.997 4.70486 180.703 4.76827 176.414C4.76827 175.302 4.80791 174.195 4.82773 173.079C4.88322 170.248 4.96249 167.416 5.06555 164.584C5.08933 163.795 5.12104 163.011 5.15671 162.227C5.15671 161.775 5.17653 161.323 5.21617 160.871C5.3113 159.229 5.39057 157.601 5.4857 155.978Z" fill="#404040"/>
<path opacity="0.1" d="M85.5635 96.52V154.004H55.3168V96.52H59.6293V77.0574H77.331V96.52H85.5635Z" fill="#404040"/>
<path opacity="0.1" d="M85.5635 155.973H55.3208V219.771H85.5635V155.973Z" fill="#404040"/>
<path opacity="0.1" d="M55.3168 221.75H85.5635V274.788C81.9956 275.981 78.3598 276.879 74.6832 277.477L73.7795 277.606C73.3356 277.666 72.8956 277.716 72.4596 277.767C72.0236 277.818 71.5718 277.855 71.1318 277.887H70.9931C70.8028 277.887 70.5967 277.915 70.4104 277.919H70.2083C69.9704 277.919 69.7326 277.947 69.4948 277.956C69.1579 277.979 68.821 277.984 68.4761 277.989C68.3295 277.989 68.1908 277.989 68.0441 277.989C67.7032 277.989 67.3663 277.989 67.0254 277.989H66.2763C66.0742 277.989 65.8799 277.989 65.6699 277.989L64.9049 277.956C64.5085 277.956 64.0804 277.906 63.6682 277.873L62.9072 277.809L61.9599 277.707C61.294 277.638 60.6321 277.55 59.9781 277.444L59.1853 277.315L58.789 277.251C58.127 277.131 57.473 277.002 56.8071 276.854C56.3196 276.757 55.836 276.637 55.3445 276.522L55.3168 221.75Z" fill="#404040"/>
<path opacity="0.1" d="M274.634 89.7311H249.695V153.999H274.634V89.7311Z" fill="#404040"/>
<path opacity="0.1" d="M274.638 155.973V219.776H150.849V192.256H216.784V208.49H249.695V155.973H274.638Z" fill="#404040"/>
<path opacity="0.1" d="M275.03 290.155H274.634V332.009C270.168 331.569 265.716 330.971 261.276 330.215C241.29 326.81 221.807 320.195 203.383 310.559C198.064 307.773 192.853 304.732 187.751 301.436C179.227 295.942 171.061 289.728 163.319 282.845C161.374 281.111 159.454 279.337 157.559 277.523C156.247 276.264 154.943 274.972 153.623 273.718C152.708 272.855 151.784 272.007 150.849 271.195V221.75H249.366C249.298 221.455 249.231 221.159 249.159 220.869C249.235 221.159 249.306 221.455 249.374 221.75H274.634V290.127C274.769 290.132 274.899 290.146 275.03 290.155Z" fill="#404040"/>
<path opacity="0.1" d="M339.677 84.9439H323.426V79.0682H330.712V61.5656C331.343 61.8331 331.972 62.1083 332.598 62.3912V79.0682H339.677V84.9439Z" fill="#404040"/>
<path opacity="0.1" d="M378.83 154.004H299.05C299.05 154.004 299.05 154.004 299.078 154.027L299.042 154.004H284.242V89.7358H288.435V137.239H307.6V109.106H323.43V86.9178H339.681V109.125H355.512V137.258H378.83V154.004Z" fill="#404040"/>
<path opacity="0.1" d="M284.242 155.973V219.776H378.83V155.973H284.242ZM404.507 294.878L404.638 244.376H378.83V221.777H284.242V332.696C291.997 333.075 299.764 332.967 307.508 332.373V332.373H307.643C311.343 332.103 315.025 331.709 318.69 331.193H318.773C338.326 328.545 357.445 322.609 375.533 313.57" fill="#404040"/>
<path opacity="0.1" d="M415.918 221.75H437.984C437.79 234.705 435.554 247.429 430.663 259.181C426.593 268.944 420.936 277.481 414.254 284.939V244.353H415.918V221.75Z" fill="#404040"/>
<path opacity="0.1" d="M437.996 219.776H415.918V166.456H427.865C434.048 183.267 437.976 201.715 437.996 219.776Z" fill="#404040"/>
<path opacity="0.1" d="M274.638 107.598H261.276V127.748H274.638V107.598Z" fill="#404040"/>
<path opacity="0.1" d="M274.638 149.364H261.276V154.004H274.638V149.364Z" fill="#404040"/>
<path opacity="0.1" d="M274.638 155.973H261.276V169.51H274.638V155.973Z" fill="#404040"/>
<path opacity="0.1" d="M274.638 191.131H261.276V211.281H274.638V191.131Z" fill="#404040"/>
<path opacity="0.1" d="M274.638 232.897H261.276V253.047H274.638V232.897Z" fill="#404040"/>
<path opacity="0.1" d="M274.634 290.127C274.769 290.127 274.899 290.127 275.03 290.155H274.634V294.836H261.276V274.663H274.634V290.127Z" fill="#404040"/>
<path opacity="0.1" d="M274.634 316.42V331.986C270.168 331.546 265.716 330.948 261.276 330.192V316.42H274.634Z" fill="#404040"/>
<path opacity="0.1" d="M208.112 218.295H150.849V219.776H208.112V218.295Z" fill="#404040"/>
<path opacity="0.1" d="M208.112 221.745H150.849V227.418H208.112V221.745Z" fill="#404040"/>
<path opacity="0.1" d="M208.112 246.014H150.849V255.136H208.112V246.014Z" fill="#404040"/>
<path opacity="0.1" d="M208.108 273.732V282.854H163.319C161.374 281.126 159.453 279.352 157.555 277.532C156.243 276.273 154.943 274.982 153.619 273.732H208.108Z" fill="#404040"/>
<path opacity="0.1" d="M208.108 301.445V310.559H203.379C198.065 307.77 192.856 304.727 187.751 301.431L208.108 301.445Z" fill="#404040"/>
<path opacity="0.1" d="M318.785 162.158H307.512V175.275H318.785V162.158Z" fill="#404040"/>
<path opacity="0.1" d="M74.711 101.044H63.4383V114.161H74.711V101.044Z" fill="#404040"/>
<path opacity="0.1" d="M74.711 131.511H63.4383V144.628H74.711V131.511Z" fill="#404040"/>
<path opacity="0.1" d="M74.711 161.978H63.4383V175.095H74.711V161.978Z" fill="#404040"/>
<path opacity="0.1" d="M74.711 192.44H63.4383V205.557H74.711V192.44Z" fill="#404040"/>
<path opacity="0.1" d="M74.711 222.907H63.4383V236.024H74.711V222.907Z" fill="#404040"/>
<path opacity="0.1" d="M74.711 253.374H63.4383V266.491H74.711V253.374Z" fill="#404040"/>
<path opacity="0.1" d="M361.819 162.158H350.546V175.275H361.819V162.158Z" fill="#404040"/>
<path opacity="0.1" d="M318.785 194.511H307.512V207.628H318.785V194.511Z" fill="#404040"/>
<path opacity="0.1" d="M361.819 194.511H350.546V207.628H361.819V194.511Z" fill="#404040"/>
<path opacity="0.1" d="M318.785 226.86H307.512V239.976H318.785V226.86Z" fill="#404040"/>
<path opacity="0.1" d="M361.819 226.86H350.546V239.976H361.819V226.86Z" fill="#404040"/>
<path opacity="0.1" d="M318.785 259.213H307.512V272.33H318.785V259.213Z" fill="#404040"/>
<path opacity="0.1" d="M361.819 259.213H350.546V272.33H361.819V259.213Z" fill="#404040"/>
<path opacity="0.1" d="M318.785 291.566H307.512V304.683H318.785V291.566Z" fill="#404040"/>
<path opacity="0.1" d="M361.819 291.566H350.546V304.683H361.819V291.566Z" fill="#404040"/>
<path opacity="0.1" d="M307.512 332.373V323.915H318.781V331.17L307.512 332.373Z" fill="#404040"/>
<path opacity="0.1" d="M7.13458 137.608V145.112H45.7129V137.608H7.13458ZM10.9793 144.642H7.83219V138.07H11.0031L10.9793 144.642ZM14.8201 144.642H11.6492V138.07H14.8201V144.642ZM18.653 144.642H15.482V138.07H18.653V144.642ZM22.4938 144.642H19.3268V138.07H22.4977L22.4938 144.642ZM26.3306 144.642H23.1596V138.07H26.3306V144.642ZM30.1714 144.642H27.0004V138.07H30.1714V144.642ZM34.0121 144.642H30.8412V138.07H34.0121V144.642ZM37.849 144.642H34.678V138.07H37.849V144.642ZM41.6858 144.642H38.5149V138.07H41.6858V144.642ZM45.5226 144.642H42.3517V138.07H45.5226V144.642Z" fill="#404040"/>
<path opacity="0.1" d="M7.13458 159.442V166.945H45.7129V159.442H7.13458ZM10.9793 166.47H7.83219V159.917H11.0031L10.9793 166.47ZM14.8201 166.47H11.6492V159.917H14.8201V166.47ZM18.653 166.47H15.482V159.917H18.653V166.47ZM22.4938 166.47H19.3268V159.917H22.4977L22.4938 166.47ZM26.3306 166.47H23.1596V159.917H26.3306V166.47ZM30.1714 166.47H27.0004V159.917H30.1714V166.47ZM34.0121 166.47H30.8412V159.917H34.0121V166.47ZM37.849 166.47H34.678V159.917H37.849V166.47ZM41.6858 166.47H38.5149V159.917H41.6858V166.47ZM45.5226 166.47H42.3517V159.917H45.5226V166.47Z" fill="#404040"/>
<path opacity="0.1" d="M7.13458 181.284V188.802H45.7129V181.284H7.13458ZM10.9793 188.313H7.83219V181.754H11.0031L10.9793 188.313ZM14.8201 188.313H11.6492V181.754H14.8201V188.313ZM18.653 188.313H15.482V181.754H18.653V188.313ZM22.4938 188.313H19.3268V181.754H22.4977L22.4938 188.313ZM26.3306 188.313H23.1596V181.754H26.3306V188.313ZM30.1714 188.313H27.0004V181.754H30.1714V188.313ZM34.0121 188.313H30.8412V181.754H34.0121V188.313ZM37.849 188.313H34.678V181.754H37.849V188.313ZM41.6858 188.313H38.5149V181.754H41.6858V188.313ZM45.5226 188.313H42.3517V181.754H45.5226V188.313Z" fill="#404040"/>
<path opacity="0.1" d="M7.13458 203.126V210.621H45.7129V203.126H7.13458ZM10.9793 210.155H7.83219V203.592H11.0031L10.9793 210.155ZM14.8201 210.155H11.6492V203.592H14.8201V210.155ZM18.653 210.155H15.482V203.592H18.653V210.155ZM22.4938 210.155H19.3268V203.592H22.4977L22.4938 210.155ZM26.3306 210.155H23.1596V203.592H26.3306V210.155ZM30.1714 210.155H27.0004V203.592H30.1714V210.155ZM34.0121 210.155H30.8412V203.592H34.0121V210.155ZM37.849 210.155H34.678V203.592H37.849V210.155ZM41.6858 210.155H38.5149V203.592H41.6858V210.155ZM45.5226 210.155H42.3517V203.592H45.5226V210.155Z" fill="#404040"/>
<path opacity="0.1" d="M7.30106 224.964C7.45564 225.67 7.63004 226.376 7.81237 227.072V225.435H10.9833V231.993H9.28685C9.33837 232.145 9.3899 232.311 9.44143 232.454H45.7129V224.964H7.30106ZM14.832 231.993H11.6611V225.435H14.832V231.993ZM18.6649 231.993H15.4939V225.435H18.6649V231.993ZM22.5056 231.993H19.3268V225.435H22.4977L22.5056 231.993ZM26.3425 231.993H23.1715V225.435H26.3425V231.993ZM30.1832 231.993H27.0123V225.435H30.1832V231.993ZM34.024 231.993H30.8531V225.435H34.024V231.993ZM37.8609 231.993H34.6899V225.435H37.8609V231.993ZM41.6977 231.993H38.5267V225.435H41.6977V231.993ZM45.5345 231.993H42.3636V225.435H45.5345V231.993Z" fill="#404040"/>
<path opacity="0.1" d="M16.2589 246.807C16.358 246.954 16.4531 247.12 16.5562 247.268H18.653V250.418C18.8789 250.732 19.1009 251.045 19.3308 251.34V247.25H22.5017V253.831H21.2175C21.3443 253.983 21.4672 254.144 21.6138 254.292H45.7248V246.807H16.2589ZM26.3306 253.831H23.1597V247.277H26.3306V253.831ZM30.1714 253.831H27.0004V247.277H30.1714V253.831ZM34.0121 253.831H30.8412V247.277H34.0121V253.831ZM37.849 253.831H34.678V247.277H37.849V253.831ZM41.6858 253.831H38.5149V247.277H41.6858V253.831ZM45.5226 253.831H42.3517V247.277H45.5226V253.831Z" fill="#404040"/>
<path opacity="0.1" d="M37.4209 268.645C37.7816 268.884 38.1502 269.106 38.5228 269.346V269.115H41.6937V271.19L42.3675 271.555V269.115H45.5385V273.104C45.5993 273.14 45.663 273.167 45.7287 273.187V268.645H37.4209Z" fill="#404040"/>
<path opacity="0.1" d="M299.05 154.004H299.074H299.05ZM274.634 290.123H275.03H274.634ZM249.159 220.864C249.235 221.159 249.298 221.455 249.37 221.745C249.306 221.455 249.239 221.159 249.159 220.864ZM299.05 153.99H299.074H299.05ZM59.6451 84.9301V86.8994H77.3508V84.9301H59.6451ZM274.634 290.123H275.03H274.634ZM249.159 220.864C249.235 221.159 249.298 221.455 249.37 221.745C249.306 221.455 249.239 221.159 249.159 220.864ZM299.05 153.99H299.074H299.05ZM274.634 290.109H275.03H274.634ZM249.159 220.864C249.235 221.159 249.298 221.455 249.37 221.745C249.306 221.455 249.239 221.159 249.159 220.864Z" fill="#404040"/>
<path d="M182.962 175.104C182.962 175.104 181.401 174.85 181.401 172.203C181.401 169.556 180.283 164.612 180.283 164.612C180.283 164.589 179.316 156.001 177.98 154.636C176.644 153.271 174.928 145.255 174.928 145.255C174.928 145.255 174.635 140.906 174.036 139.97C173.438 139.033 172.629 136.741 171.436 133.471C170.243 130.201 165.269 127.937 165.269 127.937C165.269 127.937 156.275 121.868 153.726 119.889C153.495 119.726 153.278 119.536 153.08 119.322C152.636 118.644 150.702 118.63 150.702 118.63C150.5 117.145 150.306 115.438 150.242 113.893C150.242 113.727 150.242 113.561 150.223 113.395C153.065 111.441 155.205 108.359 156.251 104.716C156.299 104.54 156.339 104.356 156.382 104.181C156.552 104.115 156.709 104.009 156.842 103.87C156.975 103.73 157.082 103.559 157.155 103.369C157.385 102.774 157.389 102.077 157.674 101.524C158.007 100.869 158.641 100.519 159.141 100.025C160.401 98.7799 160.726 96.6814 160.667 94.7721C160.627 93.227 160.413 91.6682 160.496 90.1324L160.52 89.745C160.544 89.5144 160.572 89.2838 160.607 89.0624C160.802 87.9186 161.226 86.8394 161.464 85.7049C161.701 84.5703 161.725 83.2928 161.17 82.315C160.358 80.8807 158.665 80.5948 157.179 80.4472C155.494 80.2812 153.988 80.4979 152.91 78.8699C152.405 78.019 151.838 77.2211 151.214 76.4855C150.992 76.2457 148.835 74.7145 148.835 74.613C146.731 73.4789 144.345 73.266 142.117 74.0134C140.999 74.3916 139.945 75.0096 138.811 75.3186C136.366 75.992 133.551 75.2633 131.475 76.8913C130.317 77.8137 129.623 79.2804 128.973 80.7101C128.445 81.8877 127.909 83.0637 127.364 84.2383C126.488 86.1707 125.596 88.1354 125.228 90.2754C125.15 90.741 125.103 91.2128 125.085 91.6866V91.7097C125.085 91.8804 125.085 92.051 125.085 92.2216V92.4384C125.085 92.5998 125.085 92.7566 125.109 92.8996C125.133 93.0426 125.129 93.0887 125.141 93.1855C125.152 93.2824 125.172 93.4992 125.196 93.6467C125.22 93.7943 125.267 94.0526 125.315 94.2555C125.335 94.3432 125.363 94.4262 125.386 94.5092C125.426 94.666 125.474 94.8182 125.525 94.9704C125.553 95.0488 125.581 95.1318 125.612 95.2102C125.672 95.3716 125.743 95.5284 125.814 95.6714C125.846 95.736 125.87 95.7959 125.902 95.8559C126.012 96.0704 126.134 96.2768 126.266 96.4739C127.114 97.7053 128.363 98.4893 129.287 99.6423C129.287 99.6885 129.287 99.7346 129.287 99.7761C129.287 99.9052 129.287 100.03 129.287 100.159C129.336 102.73 129.924 105.249 131 107.495C132.076 109.742 133.608 111.649 135.462 113.049C135.462 113.225 135.482 113.405 135.49 113.58C135.567 114.949 135.552 116.323 135.446 117.689C135.285 117.468 135.083 117.292 134.855 117.174C134.627 117.055 134.379 116.998 134.13 117.007C133.96 116.997 133.789 117.014 133.623 117.057L133.587 117.025V117.066C132.715 117.316 131.641 118.372 130.614 121.374C130.614 121.374 127.491 125.47 125.113 125.299C122.735 125.128 116.714 129.56 116.714 129.56C116.714 129.56 110.84 133.997 109.579 138.517C108.875 141.08 108.03 143.588 107.05 146.025L99.789 163.436L98.4493 177.249C98.4493 177.249 99.1905 183.392 99.0439 184.328C98.8972 185.264 102.092 193.709 102.092 193.709C102.092 193.709 112.647 215.288 116.96 216.395L117.269 216.142C117.453 216.254 117.649 216.339 117.851 216.395L118.739 215.667C118.793 216.479 118.77 217.295 118.672 218.102C118.077 220.232 118.894 234.138 119.932 236.863C120.971 239.589 120.602 275.327 120.602 275.327L120.456 278.482C120.456 278.482 120.456 278.583 120.491 278.759L120.456 279.506L120.563 279.57C120.674 280.571 120.638 281.586 120.456 282.573C120.083 283.956 119.932 287.867 119.932 287.867C119.932 287.867 116.964 309.95 118.371 314.386C119.778 318.823 120.975 323.684 120.975 323.684C120.975 323.684 122.461 329.219 121.046 330.164C119.631 331.11 115.608 332.696 116.436 335.002C117.189 337.133 120.047 342.843 120.471 343.677L120.436 344.115L119.853 351.462C119.947 352.432 120.174 353.379 120.523 354.267C121.161 355.867 122.402 357.527 124.76 357.347C125.156 357.315 125.616 357.26 126.06 357.19C130.377 356.517 135.692 354.276 135.692 354.276C135.416 354.072 135.163 353.829 134.939 353.552V353.552C134.727 353.312 134.558 353.026 134.445 352.708C134.331 352.391 134.274 352.05 134.277 351.707C134.34 350.369 132.188 343.996 131.653 342.427C131.57 342.201 131.526 342.072 131.526 342.072C131.526 342.072 136.433 336.104 135.617 330.814C135.617 330.814 130.186 327.125 131.974 325.1C133.762 323.076 136.956 317.26 136.956 317.26C136.956 317.26 137.103 295.514 136.956 292.267C136.803 290.014 136.895 287.747 137.23 285.52C137.289 285.183 137.361 284.856 137.436 284.533C139.908 284.962 142.404 285.183 144.903 285.192C145.815 285.192 146.743 285.192 147.678 285.128C147.678 285.435 147.69 285.767 147.714 286.124C147.92 291.511 148.304 300.956 148.617 304.466C149.061 309.498 151.515 323.057 151.515 323.057C151.515 323.057 146.834 326.553 152.331 335.168C152.331 335.168 152.331 338.291 151.967 338.742C151.577 340.22 151.264 341.723 151.027 343.244C150.797 344.867 150.702 346.509 151.075 347.362C151.967 349.401 157.318 349.235 157.318 349.235L157.448 349.207C158.459 349.086 159.479 349.199 160.452 349.54C161.424 349.881 162.328 350.444 163.112 351.195C165.146 353.095 172.863 352.26 177.041 351.656C178.678 351.416 179.772 351.195 179.772 351.195C179.825 350.979 179.844 350.754 179.827 350.531C179.784 349.336 178.979 346.717 173.525 344.378C173.525 344.378 168.396 340.366 168.467 336.87H168.36H167.766C168.198 336.842 168.475 336.87 168.475 336.87C168.475 336.87 166.466 328.338 167.286 327.646C168.107 326.954 165.649 317.5 165.649 317.5C165.649 317.5 164.242 301.634 164.167 300.523C164.17 299.569 164.294 298.621 164.535 297.709L164.167 289.011C164.167 289.011 164.095 286.119 164.167 285.179C164.155 284.362 164.098 283.547 163.996 282.739C163.961 282.416 163.925 282.079 163.885 281.747C165.808 281.18 167.056 280.654 167.056 280.654L166.834 250.376C168.467 246.687 168.769 238.593 168.761 232.851C168.761 229.161 168.618 226.431 168.618 226.431L170.849 222.193C170.849 222.193 171.365 217.119 170.548 216.008C170.188 215.505 170.35 214.984 170.647 214.555C170.802 214.413 170.965 214.283 171.135 214.168C171.135 214.168 171.111 214.126 171.083 214.066C171.239 213.915 171.405 213.777 171.579 213.656C171.579 213.656 170.786 212.226 171.496 211.622C172.161 212.148 172.756 212.544 173.208 212.867C173.176 213.204 173.144 213.397 173.144 213.397L173.335 212.936C173.771 213.222 174.036 213.397 174.036 213.397C174.036 213.397 177.532 205.294 177.457 204.1C177.382 202.905 179.835 197.873 179.835 197.873C179.835 197.873 180.132 195.231 181.472 194.124C182.812 193.017 182.511 184.997 182.511 184.997C182.511 184.997 182.883 180.818 183.775 179.112C184.667 177.405 182.962 175.104 182.962 175.104ZM116.072 171.548L116.139 173.481C115.743 172.738 115.457 172.203 115.457 172.203L116.072 171.548Z" fill="url(#paint0_linear_4_248)"/>
<path d="M174.227 209.897L173.37 214.14C173.37 214.14 166.513 210.068 165.277 204.893C164.04 199.718 167.346 197.754 167.346 197.754L173.735 200.904L174.227 209.897Z" fill="white"/>
<path opacity="0.1" d="M174.227 209.897L173.37 214.14C173.37 214.14 166.513 210.068 165.277 204.893C164.04 199.718 167.346 197.754 167.346 197.754L173.735 200.904L174.227 209.897Z" fill="black"/>
<path d="M135.743 354.303C135.743 354.303 129.402 357.015 125.041 357.357C122.727 357.536 121.51 355.885 120.884 354.294C120.541 353.41 120.321 352.468 120.23 351.504L120.796 344.194L121.098 340.301L130.361 337.502L131.673 342.169L131.796 342.524C132.323 344.083 134.435 350.425 134.372 351.748C134.369 352.087 134.426 352.423 134.537 352.736C134.649 353.049 134.814 353.333 135.022 353.57C135.235 353.849 135.477 354.096 135.743 354.303V354.303Z" fill="white"/>
<path d="M179.062 350.586C179.078 350.808 179.059 351.031 179.007 351.246C179.007 351.246 165.443 353.879 162.669 351.246C161.886 350.476 160.974 349.906 159.991 349.571C159.009 349.235 157.976 349.143 156.961 349.299C156.961 349.299 151.713 349.465 150.837 347.455C150.472 346.611 150.567 344.973 150.793 343.359C151.024 341.847 151.331 340.351 151.713 338.881L151.923 338.687L153.172 337.52L167.79 337.018H167.901C167.829 340.495 172.863 344.484 172.863 344.484C178.21 346.79 178.999 349.396 179.062 350.586Z" fill="white"/>
<path opacity="0.1" d="M179.062 350.586C179.076 350.808 179.056 351.032 179.003 351.246C179.003 351.246 165.443 353.879 162.669 351.246C161.887 350.477 160.976 349.907 159.993 349.572C159.011 349.236 157.98 349.144 156.965 349.299C156.965 349.299 151.713 349.465 150.841 347.455C150.476 346.606 150.567 344.973 150.793 343.359C152.815 343.594 156.006 344.18 157.258 345.577C159.153 347.704 162.363 349.825 164.333 349.991C165.875 350.106 175.099 350.448 179.062 350.586Z" fill="black"/>
<path opacity="0.1" d="M135.743 354.303C135.743 354.303 129.402 357.015 125.041 357.356C122.727 357.536 121.51 355.885 120.888 354.29C122.501 354.921 124.74 355.585 125.917 354.977C127.313 354.257 132.259 353.791 135.034 353.593C135.245 353.862 135.483 354.101 135.743 354.303V354.303Z" fill="black"/>
<path d="M145.153 135.764C139.921 133.398 133.191 125.58 134.871 121.928C135.245 121.006 135.466 120.011 135.525 118.994C135.633 117.614 135.649 116.226 135.573 114.844C135.455 112.579 135.221 110.324 134.871 108.092C134.871 108.092 151.206 108.52 150.254 111.32C149.977 112.141 149.933 113.566 150.009 115.162C150.084 116.757 150.282 118.561 150.488 120.087C150.774 122.181 151.059 123.777 151.059 123.777C151.059 123.777 150.06 125.405 149.473 125.493C148.887 125.58 152.66 139.135 145.153 135.764Z" fill="#CF6F80"/>
<path opacity="0.1" d="M131.784 342.524L131.661 342.681C126.778 335.809 120.872 344.374 120.872 344.374L120.785 344.194L121.086 340.301L130.349 337.502L131.661 342.169L131.784 342.524Z" fill="black"/>
<path opacity="0.1" d="M167.905 337.502C167.905 337.502 164.337 337.414 162.435 339.37C160.532 341.325 151.336 339.794 151.733 339.37C151.85 339.159 151.921 338.919 151.939 338.669L153.187 337.502L167.805 336.999C167.861 337.308 167.905 337.502 167.905 337.502Z" fill="black"/>
<path d="M137.86 283.537C137.594 284.301 137.393 285.093 137.257 285.903C136.927 288.119 136.835 290.375 136.984 292.618C137.131 295.846 136.984 317.481 136.984 317.481C136.984 317.481 133.849 323.251 132.101 325.285C130.353 327.319 135.668 330.971 135.668 330.971C136.461 336.229 131.657 342.169 131.657 342.169C126.774 335.297 120.868 343.866 120.868 343.866C120.868 343.866 117.657 337.41 116.857 335.104C116.056 332.798 119.992 331.202 121.375 330.266C122.758 329.329 121.308 323.809 121.308 323.809C121.308 323.809 120.138 318.971 118.751 314.557C117.364 310.143 120.281 288.172 120.281 288.172C120.281 288.172 120.432 284.27 120.792 282.91C120.974 281.928 121.011 280.917 120.899 279.921C120.876 279.584 120.848 279.303 120.828 279.114C120.808 278.925 120.792 278.837 120.792 278.837L120.848 278.726L122.83 274.428C122.83 274.428 138.811 280.83 137.86 283.537Z" fill="#404040"/>
<path d="M167.904 336.995C167.904 336.995 164.337 336.907 162.435 338.839C160.532 340.772 151.336 339.264 151.733 338.839C152.129 338.415 152.097 335.274 152.097 335.274C146.703 326.705 151.305 323.228 151.305 323.228C151.305 323.228 148.895 309.738 148.459 304.734C148.154 301.238 147.777 291.843 147.575 286.479C147.488 284.173 147.436 282.587 147.436 282.587L151.844 281.554L152.411 281.42L163.041 278.939C163.041 278.939 163.334 281.245 163.533 283.131C163.631 283.936 163.687 284.748 163.699 285.561C163.628 286.484 163.699 289.371 163.699 289.371L164.06 298.028C163.824 298.936 163.703 299.879 163.699 300.827C163.77 301.929 165.154 317.712 165.154 317.712C165.154 317.712 167.56 327.129 166.739 327.807C165.919 328.485 167.904 336.995 167.904 336.995Z" fill="#404040"/>
<path opacity="0.1" d="M150.254 111.32C149.977 112.141 149.933 113.566 150.009 115.162C147.821 116.695 145.305 117.479 142.752 117.423C140.198 117.368 137.71 116.475 135.573 114.848C135.455 112.582 135.221 110.325 134.871 108.092C134.871 108.092 151.206 108.511 150.254 111.32Z" fill="black"/>
<path d="M156.568 101.127C156.572 102.789 156.347 104.441 155.903 106.021C154.909 109.56 152.873 112.576 150.153 114.538C147.434 116.499 144.206 117.278 141.04 116.738C137.874 116.197 134.975 114.372 132.854 111.585C130.733 108.797 129.527 105.227 129.449 101.506C129.449 101.376 129.449 101.257 129.449 101.127C129.418 99.0324 129.746 96.9513 130.414 95.0054C131.082 93.0596 132.076 91.2878 133.338 89.7937C134.601 88.2995 136.106 87.1127 137.767 86.3026C139.427 85.4926 141.21 85.0753 143.011 85.0753C144.811 85.0753 146.594 85.4926 148.255 86.3026C149.915 87.1127 151.421 88.2995 152.683 89.7937C153.946 91.2878 154.94 93.0596 155.607 95.0054C156.275 96.9513 156.603 99.0324 156.572 101.127H156.568Z" fill="#CF6F80"/>
<path opacity="0.1" d="M145.153 135.764C139.921 133.398 133.191 125.58 134.871 121.928C135.245 121.006 135.466 120.011 135.525 118.994L142.688 125.843L147.119 130.072L150.488 120.092C150.774 122.186 151.059 123.782 151.059 123.782C151.059 123.782 150.06 125.41 149.473 125.497C148.887 125.585 152.66 139.135 145.153 135.764Z" fill="black"/>
<path d="M163.675 166.032L157.694 282.946L149.894 283.541L129.695 215.75L133.008 135.265L133.706 118.261L142.688 126.844L147.123 131.073L150.591 120.802L157.04 127.342L163.675 166.032Z" fill="#404040"/>
<path opacity="0.1" d="M137.86 283.537C137.594 284.301 137.393 285.093 137.257 285.903C131.581 284.883 126.069 282.879 120.903 279.958L120.796 279.893L120.832 279.151L120.852 278.763L122.834 274.465C122.834 274.465 138.811 280.83 137.86 283.537Z" fill="black"/>
<path opacity="0.1" d="M151.935 285.921C150.484 286.208 149.02 286.402 147.551 286.502C147.464 284.196 147.412 282.61 147.412 282.61L151.82 281.577L151.935 285.921Z" fill="black"/>
<path opacity="0.1" d="M163.509 283.154C160.691 284.007 156.339 284.967 152.442 284.367L152.387 281.443L163.017 278.962C163.017 278.962 163.311 281.245 163.509 283.154Z" fill="black"/>
<path opacity="0.1" d="M152.371 284.902C136.12 288.13 121.236 278.874 121.236 278.874L121.379 275.738C121.379 275.738 121.748 240.184 120.725 237.458C119.702 234.733 118.906 220.91 119.484 218.789C120.063 216.667 117.372 184.854 117.372 184.854L116.936 171.94L100.978 164.418L108.113 147.114C109.076 144.688 109.905 142.192 110.594 139.642C111.835 135.15 117.594 130.736 117.594 130.736C117.594 130.736 123.5 126.327 125.834 126.493C128.169 126.659 131.229 122.592 131.229 122.592C133.488 115.89 135.533 118.925 135.533 118.925C135.533 119.243 135.533 118.925 135.422 119.917C134.63 127.273 148.241 150.517 148.435 150.928L149.731 187.667L151.043 234.161L152.371 284.902Z" fill="black"/>
<path d="M151.935 284.902C135.684 288.13 120.796 278.874 120.796 278.874L120.943 275.738C120.943 275.738 121.312 240.184 120.285 237.458C119.259 234.733 118.466 220.91 119.048 218.789C119.631 216.667 116.936 184.854 116.936 184.854L116.496 171.94L100.53 164.39L107.665 147.086C108.626 144.659 109.455 142.163 110.146 139.615C111.383 135.122 117.146 130.709 117.146 130.709C117.146 130.709 123.052 126.3 125.382 126.466C127.713 126.632 130.777 122.564 130.777 122.564C133.04 115.863 135.533 118.897 135.533 118.897C135.533 119.216 135.295 119.359 135.422 119.889C137.166 127.024 147.805 150.49 147.999 150.9L149.311 187.639L150.623 234.133L151.935 284.902Z" fill="white"/>
<path opacity="0.1" d="M147.555 151.947C145.807 151.098 136.548 138.798 136.548 138.798V135.999C136.211 135.076 134.209 135.639 132.584 136.285L133.282 119.28L134.075 120.046C135.811 127.176 147.353 151.537 147.555 151.947Z" fill="black"/>
<path d="M147.995 150.928C146.243 150.079 136.984 137.779 136.984 137.779V134.98C136.647 134.057 134.645 134.62 133.02 135.265L133.722 118.261L134.515 119.027C136.255 126.157 147.801 150.522 147.995 150.928Z" fill="white"/>
<path opacity="0.1" d="M121.236 212.272C121.454 212.272 132.537 210.916 132.537 210.916C132.537 210.916 139.247 226.27 138.807 230.005C138.367 233.741 137.571 237.048 134.871 236.462C132.172 235.876 120.345 236.923 120.345 236.923L121.236 212.272Z" fill="black"/>
<path d="M120.796 211.253C121.014 211.253 132.097 209.897 132.097 209.897C132.097 209.897 138.803 225.255 138.367 228.986C137.931 232.717 137.127 236.029 134.431 235.443C131.736 234.857 119.905 235.904 119.905 235.904L120.796 211.253Z" fill="white"/>
<path d="M129.148 204.044C129.148 204.044 139.319 210.404 139.537 212.346C139.755 214.288 134.36 211.497 133.195 211.161C132.428 210.946 131.647 210.804 130.86 210.736L123.087 210.981L129.148 204.044Z" fill="#CF6F80"/>
<path opacity="0.1" d="M144.717 152.74C145.308 152.74 145.787 152.183 145.787 151.495C145.787 150.807 145.308 150.25 144.717 150.25C144.126 150.25 143.647 150.807 143.647 151.495C143.647 152.183 144.126 152.74 144.717 152.74Z" fill="black"/>
<path d="M144.717 152.233C145.308 152.233 145.787 151.676 145.787 150.988C145.787 150.3 145.308 149.743 144.717 149.743C144.126 149.743 143.647 150.3 143.647 150.988C143.647 151.676 144.126 152.233 144.717 152.233Z" fill="#3F3D56"/>
<path opacity="0.1" d="M146.687 206.645C147.278 206.645 147.757 206.088 147.757 205.4C147.757 204.712 147.278 204.155 146.687 204.155C146.096 204.155 145.617 204.712 145.617 205.4C145.617 206.088 146.096 206.645 146.687 206.645Z" fill="black"/>
<path d="M146.687 206.134C147.278 206.134 147.757 205.576 147.757 204.888C147.757 204.201 147.278 203.643 146.687 203.643C146.096 203.643 145.617 204.201 145.617 204.888C145.617 205.576 146.096 206.134 146.687 206.134Z" fill="#3F3D56"/>
<path opacity="0.1" d="M145.783 179.693C146.374 179.693 146.854 179.135 146.854 178.448C146.854 177.76 146.374 177.202 145.783 177.202C145.192 177.202 144.713 177.76 144.713 178.448C144.713 179.135 145.192 179.693 145.783 179.693Z" fill="black"/>
<path d="M145.783 179.186C146.374 179.186 146.854 178.628 146.854 177.94C146.854 177.253 146.374 176.695 145.783 176.695C145.192 176.695 144.713 177.253 144.713 177.94C144.713 178.628 145.192 179.186 145.783 179.186Z" fill="#3F3D56"/>
<path d="M170.453 210.478C170.453 210.478 171.182 211.751 170.453 212.346C169.724 212.941 170.524 214.38 170.524 214.38C170.524 214.38 168.705 215.62 169.506 216.737C170.306 217.853 169.799 222.894 169.799 222.894L167.611 227.109C167.611 227.109 167.742 229.825 167.75 233.497C167.75 239.225 167.461 247.277 165.859 250.948L166.081 281.069C166.081 281.069 158.419 284.325 152.006 283.334L151.055 235C151.055 235 152.442 207.591 152.954 202.333C153.253 199.604 153.375 196.852 153.318 194.101C153.318 194.101 153.1 185.873 152.367 182.054C152.367 182.054 151.574 165.511 151.495 160.931C151.459 158.741 151.558 152.348 151.669 146.27C151.792 139.624 151.931 133.356 151.931 133.356L150.484 120.037C150.484 120.037 151.931 119.866 152.367 120.544C152.562 120.756 152.775 120.946 153.001 121.111V121.111C155.498 123.076 164.321 129.118 164.321 129.118C164.321 129.118 169.205 131.378 170.374 134.615C171.543 137.853 172.356 140.15 172.922 141.072C173.489 141.994 173.798 146.33 173.798 146.33C173.798 146.33 175.479 154.308 176.791 155.66C178.103 157.011 179.062 165.608 179.062 165.608L167.468 176.215C167.468 176.215 166.45 193.861 166.232 194.544C166.014 195.226 170.453 210.478 170.453 210.478Z" fill="white"/>
<path d="M170.893 210.478C170.893 210.478 171.618 211.751 170.893 212.346C170.168 212.941 170.96 214.38 170.96 214.38C170.96 214.38 169.153 215.634 169.946 216.75C170.738 217.866 170.239 222.907 170.239 222.907L168.051 227.123C168.051 227.123 168.182 229.839 168.194 233.51C168.194 239.238 167.904 247.291 166.303 250.962L166.521 281.083C166.521 281.083 158.848 284.339 152.442 283.348L151.495 235.014C151.495 235.014 152.882 207.605 153.394 202.347C153.693 199.618 153.814 196.865 153.754 194.115C153.754 194.115 153.536 185.887 152.807 182.068C152.807 182.068 152.014 165.525 151.931 160.945C151.895 158.754 151.998 152.362 152.105 146.284C152.228 139.638 152.367 133.37 152.367 133.37L150.456 119.871C150.456 119.871 152.367 119.871 152.807 120.558C153 120.773 153.213 120.963 153.441 121.125C155.938 123.09 164.765 129.132 164.765 129.132C164.765 129.132 169.645 131.391 170.814 134.629C171.983 137.867 172.796 140.163 173.366 141.086C173.937 142.008 174.238 146.344 174.238 146.344C174.238 146.344 175.919 154.322 177.231 155.674C178.543 157.025 179.49 165.603 179.49 165.603L167.897 176.211C167.897 176.211 166.878 193.856 166.656 194.539C166.434 195.222 170.893 210.478 170.893 210.478Z" fill="white"/>
<path opacity="0.1" d="M157.008 137.286L158.055 140.837L152.545 147.294C152.668 140.652 152.807 134.38 152.807 134.38L150.896 120.881C150.896 120.881 152.807 120.881 153.247 121.568C153.44 121.782 153.652 121.971 153.881 122.13L158.566 137.857L157.008 137.286Z" fill="black"/>
<path d="M156.568 136.266L157.619 139.818L152.109 146.274C152.232 139.628 152.371 133.361 152.371 133.361L150.456 119.861C150.456 119.861 152.371 119.861 152.807 120.549C153.001 120.762 153.214 120.952 153.441 121.116L158.13 136.838L156.568 136.266Z" fill="white"/>
<path opacity="0.1" d="M156.568 101.127C156.572 102.789 156.347 104.441 155.903 106.021C155.828 106.034 155.751 106.03 155.678 106.009C155.604 105.988 155.535 105.949 155.474 105.896C155.371 101.745 153.615 97.8483 151.455 94.5322C150.849 93.531 150.114 92.6444 149.275 91.9034C148.428 91.1628 147.374 90.8159 146.318 90.9303C145.129 91.1194 144.079 92.0602 142.878 92.1801C141.292 92.3323 139.873 91.0548 138.3 90.9902C137.66 90.9973 137.029 91.163 136.449 91.4764C135.869 91.7897 135.352 92.2435 134.935 92.8073C134.108 93.9453 133.494 95.2709 133.131 96.6999C132.508 98.8668 132.169 101.131 132.125 103.415C132.105 104.706 131.998 106.325 130.967 106.796C131.045 105.846 130.952 104.888 130.695 103.982C130.438 103.076 130.021 102.242 129.473 101.533L129.449 101.506C129.449 101.376 129.449 101.257 129.449 101.127C129.418 99.0324 129.746 96.9513 130.414 95.0054C131.082 93.0596 132.076 91.2878 133.338 89.7937C134.601 88.2995 136.106 87.1127 137.767 86.3026C139.427 85.4926 141.21 85.0753 143.011 85.0753C144.811 85.0753 146.594 85.4926 148.255 86.3026C149.915 87.1127 151.421 88.2995 152.683 89.7937C153.946 91.2878 154.94 93.0596 155.607 95.0054C156.275 96.9513 156.603 99.0324 156.572 101.127H156.568Z" fill="black"/>
<path d="M148.625 76.0704C146.566 74.943 144.223 74.7298 142.038 75.4708C140.94 75.849 139.905 76.4624 138.791 76.7714C136.413 77.4402 133.639 76.7161 131.597 78.3349C130.464 79.2573 129.782 80.7147 129.148 82.1306L127.562 85.6449C126.698 87.5681 125.826 89.5236 125.466 91.6405C125.105 93.7574 125.323 96.128 126.476 97.8298C127.317 99.0705 128.557 99.8499 129.469 101.017C130.015 101.726 130.429 102.56 130.686 103.465C130.942 104.369 131.035 105.326 130.959 106.274C131.994 105.813 132.093 104.19 132.117 102.898C132.161 100.614 132.5 98.3503 133.123 96.1833C133.485 94.7539 134.099 93.4281 134.927 92.2908C135.345 91.7274 135.861 91.274 136.441 90.9607C137.021 90.6473 137.652 90.4813 138.292 90.4737C139.877 90.5382 141.3 91.8112 142.87 91.659C144.059 91.5437 145.113 90.5982 146.31 90.4137C147.366 90.2975 148.421 90.6446 149.267 91.3869C150.105 92.1267 150.839 93.0136 151.443 94.0157C153.608 97.3317 155.363 101.22 155.467 105.38C155.914 105.762 156.561 105.264 156.782 104.674C157.004 104.084 157.012 103.392 157.294 102.829C157.619 102.179 158.241 101.833 158.729 101.344C159.965 100.104 160.274 98.0143 160.227 96.1188C160.179 94.2232 159.862 92.3 160.171 90.4368C160.358 89.293 160.778 88.223 161.008 87.0931C161.238 85.9631 161.265 84.6948 160.722 83.7217C159.93 82.292 158.261 82.0107 156.806 81.8769C155.153 81.7109 153.675 81.923 152.621 80.3042C152.126 79.4595 151.569 78.6663 150.956 77.9336C150.746 77.6938 148.625 76.1719 148.625 76.0704Z" fill="#512E4E"/>
<path opacity="0.1" d="M105.544 173.328L101.402 164.418L100.09 178.166C100.09 178.166 100.82 184.273 100.673 185.209C100.526 186.145 103.662 194.539 103.662 194.539C103.662 194.539 114.019 216.003 118.248 217.11L132.537 205.23L128.748 199.631C128.748 199.631 127.436 199.036 127.107 199.631C127.107 199.631 120.071 185.546 119.342 184.526C118.612 183.507 118.755 181.473 118.755 181.473C118.755 181.473 117.661 180.117 118.026 178.844C118.39 177.571 115.913 173.158 115.913 173.158L118.172 170.699L105.544 173.328Z" fill="black"/>
<path d="M101.62 163.403L100.526 164.418L99.2143 178.166C99.2143 178.166 99.9436 184.273 99.797 185.209C99.6503 186.145 102.79 194.539 102.79 194.539C102.79 194.539 113.143 216.003 117.372 217.11L131.665 205.23L127.872 199.631C127.872 199.631 126.56 199.036 126.231 199.631C126.231 199.631 119.195 185.546 118.466 184.526C117.736 183.507 117.883 181.473 117.883 181.473C117.883 181.473 116.789 180.117 117.154 178.844C117.518 177.571 115.037 173.158 115.037 173.158L117.297 170.699L101.62 163.403Z" fill="white"/>
<path opacity="0.1" d="M169.506 217.262C170.299 218.383 169.799 223.415 169.799 223.415L167.611 227.63C167.611 227.63 167.742 230.351 167.75 234.018L164.072 235.355C163.739 235.476 163.387 235.503 163.044 235.433C162.701 235.363 162.377 235.198 162.1 234.953C161.822 234.708 161.599 234.389 161.449 234.024C161.299 233.658 161.227 233.256 161.238 232.851L161.872 209.048L170.453 212.867C169.724 213.457 170.524 214.906 170.524 214.906C170.524 214.906 168.705 216.142 169.506 217.262Z" fill="black"/>
<path d="M169.946 216.75C170.738 217.871 170.239 222.907 170.239 222.907L168.051 227.123C168.051 227.123 168.182 229.839 168.194 233.51L164.448 234.871C164.123 234.989 163.778 235.014 163.442 234.945C163.106 234.877 162.789 234.715 162.518 234.475C162.246 234.235 162.028 233.923 161.881 233.565C161.735 233.207 161.663 232.814 161.674 232.417L162.312 208.541L170.897 212.36C170.164 212.95 170.964 214.394 170.964 214.394C170.964 214.394 169.153 215.634 169.946 216.75Z" fill="white"/>
<path d="M172.788 205.405C172.788 205.405 172.205 209.736 170.746 209.989C169.288 210.243 168.634 216.995 167.179 216.755C165.724 216.515 166.688 210.478 166.739 209.307C166.791 208.135 165.154 203.283 166.378 202.181C167.603 201.079 171.48 202.181 171.48 202.181L172.788 205.405Z" fill="#CF6F80"/>
<path opacity="0.1" d="M175.891 172.055L178.642 165.599C178.642 165.599 179.736 170.52 179.736 173.148C179.736 175.777 181.266 176.036 181.266 176.036C181.266 176.036 182.943 178.342 182.059 180.02C181.175 181.699 180.818 185.878 180.818 185.878C180.818 185.878 181.107 193.852 179.795 194.954C178.483 196.056 178.21 198.69 178.21 198.69C178.21 198.69 175.8 203.694 175.875 204.884C175.951 206.074 172.522 214.131 172.522 214.131C172.522 214.131 174.199 204.118 164.428 199.792C164.428 199.792 164.353 196.393 165.082 195.461C165.812 194.53 166.949 194.105 166.236 189.397C165.522 184.688 166.03 179.061 166.03 177.931C166.03 176.801 168.218 169.754 168.218 169.754L175.891 172.055Z" fill="black"/>
<path d="M177.08 164.676L179.482 165.599C179.482 165.599 180.58 170.52 180.58 173.148C180.58 175.777 182.11 176.036 182.11 176.036C182.11 176.036 183.787 178.342 182.903 180.02C182.019 181.699 181.666 185.878 181.666 185.878C181.666 185.878 181.956 193.852 180.644 194.954C179.332 196.056 179.038 198.69 179.038 198.69C179.038 198.69 176.632 203.694 176.708 204.884C176.783 206.074 173.351 214.131 173.351 214.131C173.351 214.131 175.031 204.118 165.257 199.792C165.257 199.792 165.185 196.393 165.915 195.461C166.644 194.53 167.782 194.105 167.068 189.397C166.355 184.688 166.862 179.061 166.862 177.931C166.862 176.801 169.05 169.754 169.05 169.754L177.08 164.676Z" fill="white"/>
<path opacity="0.1" d="M124.027 332.032C124.027 332.032 127.856 329.233 130.369 331.266C132.882 333.3 124.027 332.032 124.027 332.032Z" fill="black"/>
<path opacity="0.1" d="M153.778 323.375C153.778 323.375 157.167 322.868 160.013 326.433C162.859 329.998 153.778 323.375 153.778 323.375Z" fill="black"/>
<g opacity="0.1">
<path d="M158.737 100.334C158.249 100.823 157.623 101.174 157.298 101.824C157.02 102.382 157.012 103.069 156.79 103.669C156.568 104.268 155.922 104.757 155.474 104.379C155.371 100.228 153.612 96.3309 151.451 93.0103C150.847 92.0081 150.113 91.1213 149.275 90.3814C148.427 89.6393 147.371 89.2923 146.314 89.4083C145.125 89.5974 144.079 90.5382 142.878 90.6535C141.292 90.8104 139.87 89.5328 138.296 89.4683C137.657 89.4757 137.026 89.642 136.446 89.9562C135.866 90.2704 135.351 90.7252 134.935 91.29C134.107 92.4256 133.493 93.7499 133.131 95.1779C132.508 97.3449 132.169 99.6086 132.125 101.893C132.101 103.18 131.998 104.785 130.975 105.264C130.999 105.605 130.999 105.948 130.975 106.288C132.006 105.827 132.109 104.204 132.132 102.912C132.177 100.628 132.516 98.3641 133.139 96.1972C133.501 94.7677 134.115 93.4419 134.943 92.3046C135.36 91.7413 135.875 91.2879 136.455 90.9746C137.035 90.6613 137.665 90.4952 138.304 90.4875C139.889 90.5521 141.316 91.825 142.886 91.6728C144.075 91.5575 145.129 90.612 146.322 90.4276C147.379 90.3115 148.435 90.6586 149.283 91.4007C150.121 92.1405 150.855 93.0274 151.459 94.0295C153.619 97.3456 155.379 101.233 155.482 105.394C155.93 105.776 156.576 105.278 156.798 104.688C157.02 104.098 157.028 103.406 157.306 102.843C157.631 102.193 158.257 101.847 158.744 101.358C159.981 100.117 160.29 98.0281 160.243 96.1326C160.243 96.0727 160.243 96.0127 160.243 95.9574C160.167 97.5992 159.791 99.2734 158.737 100.334Z" fill="black"/>
<path d="M129.477 100.007C128.565 98.8399 127.321 98.0604 126.484 96.8244C125.78 95.7302 125.378 94.4131 125.331 93.0472C125.206 94.7541 125.616 96.4559 126.484 97.839C127.321 99.0797 128.565 99.8591 129.477 101.026C130.352 102.167 130.878 103.614 130.971 105.14C131.032 104.211 130.931 103.278 130.674 102.396C130.417 101.514 130.01 100.701 129.477 100.007V100.007Z" fill="black"/>
<path d="M161.016 86.0831C160.782 87.213 160.366 88.2876 160.175 89.4268C160.063 90.188 160.021 90.9612 160.052 91.7328C160.066 91.2932 160.107 90.8554 160.175 90.4229C160.366 89.2792 160.782 88.2092 161.016 87.0792C161.152 86.456 161.196 85.8104 161.146 85.1699C161.122 85.4775 161.078 85.7827 161.016 86.0831V86.0831Z" fill="black"/>
</g>
<path opacity="0.1" d="M52.6096 350.784C73.9399 350.784 91.2315 347.553 91.2315 343.567C91.2315 339.58 73.9399 336.349 52.6096 336.349C31.2793 336.349 13.9877 339.58 13.9877 343.567C13.9877 347.553 31.2793 350.784 52.6096 350.784Z" fill="#404040"/>
<path d="M53.8542 205.299H51.369V270.406H53.8542V205.299Z" fill="#535461"/>
<path d="M69.471 270.208L69.3164 273.141L69.0945 277.292L69.0033 279.017L68.7853 283.168L68.6902 284.893L68.4682 289.044L65.9632 336.118C65.8543 338.144 65.0862 340.045 63.8153 341.434C62.5443 342.824 60.866 343.598 59.1219 343.599H46.0973C44.3537 343.598 42.6758 342.824 41.4055 341.434C40.1352 340.044 39.3679 338.143 39.26 336.118L36.7669 289.011L36.5449 284.86L36.4538 283.136L36.2318 278.985L36.1406 277.26L35.9187 273.109L35.7601 270.176C35.7326 269.611 35.8045 269.046 35.9714 268.515C36.1383 267.984 36.3967 267.498 36.7307 267.087C37.0647 266.677 37.4674 266.35 37.9139 266.127C38.3604 265.904 38.8414 265.789 39.3274 265.79H65.9672C66.4513 265.795 66.9294 265.915 67.3721 266.143C67.8147 266.371 68.2125 266.703 68.5408 267.117C68.8692 267.531 69.1211 268.019 69.2811 268.55C69.4411 269.082 69.5057 269.646 69.471 270.208V270.208Z" fill="#3F3D56"/>
<path d="M69.3164 273.141L69.0945 277.278H36.1248L35.9028 273.141H69.3164Z" fill="#9D9CB5"/>
<path d="M69.0033 279.003L68.7853 283.145H36.4379L36.2159 279.003H69.0033Z" fill="#9D9CB5"/>
<path d="M68.6902 284.874L68.4722 289.011H36.751L36.5291 284.874H68.6902Z" fill="#9D9CB5"/>
<path d="M32.1096 229.701C46.5809 241.886 52.6215 260.943 52.6215 260.943C52.6215 260.943 35.1814 260.246 20.7061 248.061C6.23087 235.876 0.202148 216.824 0.202148 216.824C0.202148 216.824 17.6343 217.516 32.1096 229.701Z" fill="#404040"/>
<path d="M0.190262 216.824C0.190262 216.824 18.2962 228.516 24.103 238.196C29.9098 247.877 52.6215 260.943 52.6215 260.943" stroke="#535461" stroke-width="2" stroke-miterlimit="10"/>
<path d="M41.4519 205.156C49.3277 211.783 52.6215 222.156 52.6215 222.156C52.6215 222.156 43.1285 221.777 35.2488 215.15C27.369 208.523 24.0832 198.146 24.0832 198.146C24.0832 198.146 33.5722 198.524 41.4519 205.156Z" fill="#404040"/>
<path d="M24.0832 198.146C24.0832 198.146 33.9368 204.51 37.0959 209.777C40.2549 215.044 52.6215 222.156 52.6215 222.156" stroke="#535461" stroke-width="2" stroke-miterlimit="10"/>
<path d="M64.0567 221.63C55.0076 233.201 53.0932 248.324 53.0932 248.324C53.0932 248.324 65.8522 244.681 74.8933 233.104C83.9344 221.528 85.8568 206.41 85.8568 206.41C85.8568 206.41 73.1057 210.058 64.0567 221.63Z" fill="#404040"/>
<path d="M85.8647 206.415C85.8647 206.415 74.0768 218.277 71.0803 226.449C68.0837 234.622 53.0932 248.324 53.0932 248.324" stroke="#535461" stroke-width="2" stroke-miterlimit="10"/>
<path d="M396.235 217.557C396.235 217.557 389.691 179.674 392.196 174.961C392.196 174.961 392.287 170.58 392.136 164.994C392.136 164.782 392.136 164.57 392.136 164.353C392.577 164.695 393.037 165.003 393.512 165.276C395.82 166.655 398.47 167.054 401.003 166.401L399.021 163.832C398.546 163.219 398.05 162.555 397.947 161.743C397.844 160.931 398.13 160.207 398.375 159.483C400.258 153.949 400.357 146.989 396.73 142.765C393.666 139.213 392.921 134.629 389.596 131.387C387.166 129.012 385.83 125.53 384.57 122.163C383.504 119.317 382.43 116.448 381.819 113.432C381.343 111.075 381.153 108.636 380.499 106.334C379.845 104.033 378.62 101.796 376.706 100.768C376.024 100.403 375.267 100.196 374.645 99.7115C373.828 99.0704 373.337 98.0281 372.746 97.115C369.746 92.503 359.698 95.2194 354.942 97.0919C353.648 97.5634 352.451 98.3354 351.422 99.361L351.465 99.278C351.501 99.2088 351.545 99.1396 351.584 99.0705C351.064 99.5603 350.614 100.144 350.253 100.8C349.559 102.077 349.27 103.567 348.691 104.951C347.993 106.588 344.113 111.159 345.782 112.999C345.898 113.122 346.032 113.222 346.178 113.294C346.804 113.597 347.494 113.677 348.16 113.524L348.088 113.723C347.518 115.346 347.226 117.084 347.228 118.837C347.228 126.415 352.599 132.558 359.23 132.558C360.477 132.56 361.716 132.337 362.905 131.899C362.932 132.074 362.956 132.249 362.984 132.424C362.984 132.494 363.004 132.563 363.012 132.632L362.801 132.973C362.791 132.952 362.779 132.932 362.766 132.913L356.543 143.032C355.592 143.812 350.114 148.424 349.805 151.883C349.48 155.669 349.155 160.101 349.155 160.101L349.111 161.051C348.839 161.316 348.521 161.508 348.179 161.616C347.837 161.723 347.479 161.743 347.129 161.674C345.187 161.305 345.187 169.975 345.187 169.975C345.187 169.975 343.895 171.359 343.007 170.16C342.119 168.961 339.773 173.024 339.773 173.024L325.067 173.762L324.731 173.785L323.938 170.93C323.853 170.629 323.669 170.379 323.426 170.235C323.183 170.091 322.901 170.064 322.642 170.16C322.58 170.183 322.521 170.213 322.463 170.248L322.408 170.284L322.305 170.367L322.253 170.423C322.225 170.453 322.198 170.485 322.174 170.52L322.126 170.584L322.103 170.612C322.011 170.759 321.951 170.929 321.926 171.109C321.901 171.288 321.913 171.472 321.96 171.645L322.642 174.094C319.804 174.758 316.902 176.631 319.269 181.787L307.275 179.209L311.155 183L331.187 187.81C330.922 188.363 331.096 189.166 331.925 190.296C335.492 195.171 341.992 196.494 344.608 196.836C345.299 198.634 346.162 200.336 347.181 201.909L346.955 206.765C346.955 206.765 340.332 243.781 339.119 245.658C339.731 244.851 340.291 243.993 340.795 243.09C338.873 250.695 336.186 261.104 335.48 262.663C334.346 265.153 333.296 275.231 334.588 275.876C334.985 276.075 336.118 275.978 337.735 275.835V276.67L337.664 308.303C337.664 308.303 337.989 327.706 337.097 329.555C336.205 331.405 335.968 335.283 335.968 335.283C335.968 335.283 332.4 342.935 329.574 346.011C329.555 346.035 329.534 346.057 329.511 346.076L329.424 345.356C329.424 345.356 326.027 350.346 318.512 350.065C318.512 350.065 313.989 353.487 320.696 353.672C327.402 353.856 335.968 353.395 335.968 353.395C335.968 353.395 341.949 342.787 346.959 344.171V352.21H348.493V344.042C349.204 343.497 349.813 342.789 350.282 341.963C350.752 341.136 351.072 340.206 351.224 339.231C351.355 338.226 351.259 337.199 350.945 336.25C350.63 335.301 350.109 334.464 349.432 333.821C349.128 333.502 348.884 333.112 348.715 332.677C348.547 332.242 348.458 331.771 348.453 331.294L348.398 331.349C348.398 331.188 348.362 331.022 348.346 330.851C347.906 326.701 347.355 318.136 349.301 311.799C351.969 303.11 352.777 291.008 350.835 283.804C350.209 281.501 349.694 279.16 349.293 276.789C349.246 276.49 349.202 276.204 349.163 275.936C350.49 276.145 351.805 276.453 353.098 276.859C357.597 278.302 367.439 278.57 375.842 278.491C375.862 278.759 375.886 279.04 375.913 279.321C376.063 281.277 376.376 283.211 376.849 285.096C377.903 288.785 378.387 305.052 378.387 305.052C378.387 305.052 379.746 318.427 379.005 323.869C378.609 326.894 378.212 329.934 377.986 332.987V333.047C377.986 333.047 375.759 340.426 374.13 344.434C374.09 344.535 374.046 344.637 374.007 344.733C373.572 344.779 373.145 344.89 372.734 345.061C372.734 345.061 370.55 350.134 368.374 350.973C366.198 351.813 366.92 354.575 371.847 353.561C376.773 352.546 384.213 351.716 384.213 351.716L384.534 346.541L386.048 344.337L385.652 349.498L387.265 349.129L387.051 342.852L389.528 339.245C389.528 339.245 392.521 336.146 388.074 330.049V330.183C388.026 330.095 387.983 330.003 387.931 329.915V329.887C387.194 328.559 386.607 326.083 387.681 321.687C389.624 313.745 390.753 306.537 390.753 306.537C390.753 306.537 395.089 287.226 389.877 278.09H390.107C389.573 276.804 389.195 275.438 388.985 274.031C388.959 273.865 388.935 273.695 388.914 273.519C392.771 273.261 396.556 272.45 399.644 270.697C399.632 270.679 397.773 224.854 396.235 217.557ZM347.272 185.596V185.688L346.479 185.735L347.272 185.596ZM344.553 186.034C344.422 186.068 344.3 186.136 344.196 186.233C343.855 186.794 343.641 187.446 343.574 188.128L342.337 187.805C342.337 187.805 341.469 187.589 340.221 187.344L339.63 186.652C341.255 186.496 342.944 186.265 344.553 186.034V186.034Z" fill="url(#paint1_linear_4_248)"/>
<path d="M385.47 342.916L384.998 349.452L386.579 349.083L386.342 341.994L385.47 342.916Z" fill="#1D2366"/>
<path d="M349.388 311.887C347.482 318.205 348.021 326.733 348.449 330.874C348.608 332.406 348.754 333.337 348.754 333.337C348.754 333.337 345.904 340.892 345.667 341.178C345.429 341.464 337.279 347.252 337.279 347.252L331.584 351.121C331.584 351.121 325.805 348.174 328.575 347.159C329.141 346.895 329.651 346.491 330.07 345.974C332.844 342.907 336.328 335.283 336.328 335.283C336.328 335.283 336.566 331.414 337.438 329.574C338.31 327.734 337.993 308.395 337.993 308.395L338.06 276.872V272.763L348.901 272.855C348.969 274.25 349.126 275.638 349.369 277.006C349.758 279.368 350.262 281.703 350.879 283.998C352.789 291.188 351.997 303.23 349.388 311.887Z" fill="#FFB0B1"/>
<path opacity="0.1" d="M348.754 333.337C348.754 333.337 345.904 340.892 345.667 341.178C345.429 341.464 337.279 347.252 337.279 347.252L331.584 351.121C331.584 351.121 325.805 348.174 328.575 347.159C329.141 346.895 329.651 346.491 330.07 345.974L330.315 347.99L332.214 347.897L348.465 330.884C348.608 332.406 348.754 333.337 348.754 333.337Z" fill="black"/>
<path d="M348.556 331.313L332.214 348.442L330.315 348.534L329.919 345.305C329.919 345.305 326.597 350.277 319.217 350C319.217 350 314.786 353.409 321.353 353.593C327.921 353.778 336.308 353.316 336.308 353.316C336.308 353.316 342.167 342.709 347.07 344.092V352.103H348.576V344.019C349.276 343.47 349.874 342.762 350.333 341.938C350.792 341.114 351.103 340.19 351.247 339.222C351.378 338.225 351.286 337.206 350.979 336.262C350.673 335.319 350.164 334.483 349.499 333.835C349.203 333.512 348.966 333.121 348.804 332.687C348.642 332.253 348.557 331.786 348.556 331.313V331.313Z" fill="#1D2366"/>
<path d="M386.976 321.738C385.921 326.119 386.496 328.587 387.218 329.91V329.938C388.143 331.572 388.786 333.4 389.112 335.32L389.176 335.735L381.74 348.349L377.705 350.194C377.705 350.194 371.216 347.616 372.401 346.878C372.699 346.698 373.162 345.739 373.694 344.415C375.279 340.426 377.467 333.065 377.467 333.065V333.005C377.697 329.966 378.062 326.936 378.466 323.919C379.191 318.491 377.859 305.167 377.859 305.167C377.859 305.167 377.384 288.965 376.353 285.28C375.888 283.407 375.579 281.485 375.43 279.543C375.216 277.237 375.168 275.337 375.168 275.337C375.168 275.337 379.441 268.419 387.273 275.89C387.899 276.486 388.45 277.182 388.91 277.956C394.32 286.913 389.964 306.643 389.964 306.643C389.964 306.643 388.874 313.819 386.976 321.738Z" fill="#FFB0B1"/>
<path opacity="0.1" d="M389.188 335.735L381.752 348.349L377.717 350.194C377.717 350.194 371.228 347.616 372.413 346.878C372.711 346.698 373.174 345.739 373.706 344.415C376.452 344.388 377.875 347.431 377.875 347.431L381.355 346.786C381.355 346.786 385.945 336.289 386.976 335.648C388.006 335.007 387.134 330.856 387.134 330.856V329.8C387.162 329.837 387.186 329.878 387.218 329.915V329.943C388.143 331.577 388.786 333.405 389.112 335.325L389.188 335.735Z" fill="black"/>
<path d="M378.113 347.704C378.113 347.704 376.131 343.47 372.334 345.033C372.334 345.033 370.198 350.106 368.061 350.927C365.925 351.748 366.638 354.516 371.466 353.506C376.294 352.495 383.571 351.661 383.571 351.661L383.888 346.5L388.795 339.227C388.795 339.227 391.72 336.141 387.368 330.067V331.123C387.368 331.123 388.24 335.274 387.21 335.915C386.179 336.556 381.605 347.058 381.605 347.058L378.113 347.704Z" fill="#1D2366"/>
<path opacity="0.1" d="M348.913 272.846C348.981 274.241 349.138 275.629 349.381 276.997C344.917 276.236 340.775 276.614 338.06 276.863V272.754L348.913 272.846Z" fill="black"/>
<path opacity="0.1" d="M389.35 279.105C389.35 279.105 383.008 279.464 375.446 279.538C375.232 277.232 375.184 275.332 375.184 275.332C375.184 275.332 379.457 268.414 387.289 275.885C387.915 276.481 388.466 277.177 388.926 277.952C389.049 278.345 389.19 278.73 389.35 279.105V279.105Z" fill="black"/>
<path d="M389.35 278.274C389.35 278.274 361.573 279.838 353.106 277.075C344.64 274.313 336.249 276.706 334.985 276.065C333.72 275.424 334.747 265.384 335.857 262.898C336.966 260.412 343.055 235.272 343.055 235.272L348.913 199.732L355.084 197.754L355.52 197.611L366.274 194.161L374.153 191.629C374.153 191.629 389.822 262.806 388.478 268.054C387.99 270.064 387.911 272.178 388.248 274.23C388.453 275.631 388.824 276.992 389.35 278.274V278.274Z" fill="#1D2366"/>
<path d="M328.492 175.427C328.492 175.427 322.943 182.345 327.144 186.2C331.346 190.056 334.109 186.569 334.109 186.569L328.492 175.427Z" fill="#C7DAF5"/>
<path opacity="0.1" d="M328.492 175.427C328.492 175.427 322.943 182.345 327.144 186.2C331.346 190.056 334.109 186.569 334.109 186.569L328.492 175.427Z" fill="black"/>
<path d="M373.325 129.943C373.325 129.943 372.675 130.663 371.696 131.723C370.301 133.241 368.236 135.459 366.404 137.318C363.868 139.887 361.775 141.773 362.524 140.163C363.273 138.554 363.13 135.75 362.758 133.125C362.73 132.95 362.706 132.775 362.679 132.604C362.37 130.677 361.961 128.773 361.454 126.904C361.454 126.904 365.552 120.742 367.819 118.312C368.664 117.389 369.254 117.011 369.29 117.652C369.33 118.515 369.885 120.419 370.574 122.439C370.594 122.504 370.614 122.564 370.638 122.629C371.097 124.012 371.617 125.433 372.072 126.659C372.77 128.541 373.325 129.943 373.325 129.943Z" fill="#FFB0B1"/>
<path opacity="0.1" d="M370.638 122.629C370.252 125.039 369.318 127.285 367.932 129.131C366.546 130.978 364.759 132.357 362.758 133.125C362.443 131.02 362.007 128.942 361.454 126.904C361.454 126.904 369.171 115.305 369.29 117.652C369.318 118.542 369.92 120.516 370.638 122.629Z" fill="black"/>
<path opacity="0.1" d="M361.989 136.225L362.988 134.588C362.988 134.588 363.65 139.283 366.083 137.212C368.517 135.141 368.636 152.796 368.636 152.796L366.024 198.238L347.149 196.923L347.684 174.966L349.82 163.897L355.104 147.806L358.247 142.488L361.989 136.225Z" fill="black"/>
<path d="M368.636 153.077L366.258 194.165L366.008 198.519L355.485 197.786L355.088 197.758L347.161 197.205L347.696 175.242L349.832 164.174L355.116 148.082L358.259 142.765L362.001 136.478L363 134.846C363 134.846 363.662 139.541 366.095 137.47L366.147 137.428C368.525 135.676 368.636 153.077 368.636 153.077Z" fill="#1D2366"/>
<path d="M350.098 160.327C350.098 160.327 349.151 162.633 347.248 162.26C345.346 161.886 345.349 170.561 345.349 170.561C345.349 170.561 344.085 171.945 343.213 170.746C342.341 169.546 340.042 173.6 340.042 173.6L325.638 174.338C325.638 174.338 332.047 177.747 330.791 188.059C330.791 188.059 352.551 186.491 353.265 184.097C353.978 181.704 350.098 160.327 350.098 160.327Z" fill="white"/>
<path opacity="0.03" d="M350.098 160.327C350.098 160.327 349.151 162.633 347.248 162.26C345.346 161.886 345.349 170.561 345.349 170.561C345.349 170.561 344.085 171.945 343.213 170.746C342.341 169.546 340.042 173.6 340.042 173.6L325.638 174.338C325.638 174.338 332.047 177.747 330.791 188.059C330.791 188.059 352.551 186.491 353.265 184.097C353.978 181.704 350.098 160.327 350.098 160.327Z" fill="black"/>
<path d="M308.238 179.757L312.035 183.53L343.292 191.172L339.416 186.569L308.238 179.757Z" fill="white"/>
<path d="M362.048 137.678C361.529 138.6 360.043 143.323 358.802 147.446C357.768 150.882 356.904 153.903 356.904 153.903C356.904 153.903 354.886 169.187 353.855 171.949C352.825 174.712 353.384 185.486 353.384 185.486L349.543 212.092C349.543 212.092 347.803 225.813 345.116 234.008C342.464 242.075 339.511 245.857 339.42 245.977C340.609 244.104 347.09 207.236 347.09 207.236L349.23 160.738C349.23 160.738 349.543 156.319 349.86 152.542C350.177 148.765 356.598 143.609 356.598 143.609L362.79 133.365C363.412 134.334 362.996 136.022 362.048 137.678Z" fill="white"/>
<path d="M345.904 197.435C345.904 197.435 336.788 196.974 332.372 190.803C327.957 184.632 342.579 188.34 342.579 188.34L346.38 189.355L345.904 197.435Z" fill="#FFB0B1"/>
<path opacity="0.1" d="M388.478 268.059C387.99 270.069 387.911 272.183 388.248 274.234C378.303 275.055 367.665 271.928 367.665 271.928C365.683 274.05 360.463 277.177 360.463 277.177L357.617 236.13C355.798 230.596 355.084 201.6 355.084 201.6C355.084 201.6 355.247 200.083 355.481 197.809C355.481 197.753 355.481 197.694 355.5 197.638C356.21 191.287 357.617 179.365 358.307 177.756C359.258 175.542 355.382 169.653 355.382 169.653L357.145 152.15L357.359 150.038C361.077 148.105 363.927 141.934 363.927 141.934L366.115 137.475C368.493 135.699 368.616 153.1 368.616 153.1L366.238 194.188L374.118 191.656C374.118 191.656 389.822 262.81 388.478 268.059Z" fill="black"/>
<path d="M398.684 270.895C387.844 277.158 368.141 271.356 368.141 271.356C366.159 273.478 360.939 276.605 360.939 276.605L358.089 235.558C356.273 230.024 355.56 201.028 355.56 201.028C355.56 201.028 357.851 179.393 358.802 177.184C359.08 176.538 358.945 175.579 358.616 174.546C356.998 169.629 356.404 164.336 356.88 159.1L357.641 151.578L357.851 149.47C361.573 147.533 364.423 141.363 364.423 141.363L366.404 137.322L370.051 129.879L371.779 126.355L372.073 126.664L374.312 129.025C374.312 129.025 375.263 129.948 376.69 131.331C379.794 134.375 385.157 139.735 387.923 143.014C390.357 145.901 391.126 157.131 391.348 165.585C391.494 171.151 391.407 175.514 391.407 175.514C388.954 180.214 395.371 217.945 395.371 217.945C396.865 225.236 398.684 270.895 398.684 270.895Z" fill="white"/>
<path opacity="0.03" d="M377.875 141.27C377.875 141.27 370.435 157.749 371.3 164.012C372.164 170.275 374.621 177.364 373.436 179.02C373.029 179.647 372.502 180.156 371.898 180.507C371.294 180.858 370.628 181.042 369.952 181.044C368.763 181.136 365.592 183.715 365.592 183.991C365.592 184.268 362.663 184.268 360.043 185.559C357.423 186.851 353.554 187.584 353.554 187.584C353.554 187.584 346.023 187.307 345.322 188.137C344.62 188.968 343.899 193.935 345.401 197.896C346.903 201.858 348.572 204.814 349.832 205.354C351.093 205.894 359.092 202.776 365.58 202.038C372.069 201.3 379.112 195.318 379.112 195.318C379.112 195.318 386.869 192.09 388.228 186.662C389.588 181.233 386.568 151.398 386.568 151.398C386.568 151.398 384.285 137.493 377.875 141.27Z" fill="black"/>
<path opacity="0.03" d="M376.924 139.887C376.924 139.887 369.484 156.37 370.356 162.628C371.228 168.887 373.678 175.98 372.489 177.641C372.083 178.269 371.557 178.778 370.953 179.13C370.35 179.481 369.684 179.664 369.009 179.665C367.819 179.757 364.649 182.336 364.649 182.612C364.649 182.889 361.719 182.889 359.099 184.176C356.479 185.463 352.611 186.2 352.611 186.2C352.611 186.2 345.08 185.924 344.382 186.754C343.685 187.584 342.955 192.556 344.462 196.513C345.968 200.47 347.633 203.431 348.893 203.971C350.153 204.51 358.152 201.392 364.641 200.659C371.129 199.926 378.173 193.935 378.173 193.935C378.173 193.935 385.925 190.706 387.269 185.283C388.613 179.859 385.608 150.015 385.608 150.015C385.608 150.015 383.333 136.114 376.924 139.887Z" fill="black"/>
<path d="M377.641 140.44C377.641 140.44 370.202 156.923 371.074 163.182C371.946 169.44 374.395 176.534 373.21 178.189C372.804 178.819 372.278 179.33 371.674 179.682C371.069 180.034 370.402 180.218 369.726 180.219C368.537 180.311 365.366 182.889 365.366 183.161C365.366 183.433 362.441 183.438 359.817 184.729C357.193 186.021 353.328 186.754 353.328 186.754C353.328 186.754 345.797 186.477 345.096 187.307C344.394 188.137 343.673 193.109 345.175 197.066C346.677 201.023 348.346 203.984 349.606 204.524C350.867 205.064 358.866 201.946 365.354 201.208C371.843 200.47 378.886 194.488 378.886 194.488C378.886 194.488 386.643 191.26 388.002 185.831C389.362 180.403 386.361 150.568 386.361 150.568C386.361 150.568 384.047 136.686 377.641 140.44Z" fill="white"/>
<path opacity="0.1" d="M377.479 184.651C377.479 184.651 371.533 183.267 373.602 185.573C375.671 187.879 375.66 189.899 378.192 189.807C380.725 189.715 377.479 184.651 377.479 184.651Z" fill="black"/>
<path opacity="0.1" d="M387.527 234.267C387.527 234.267 384.839 236.384 389.98 241.263C395.121 246.143 387.527 234.267 387.527 234.267Z" fill="black"/>
<path opacity="0.1" d="M382.398 251.668C382.398 251.945 381.447 261.814 385.006 264.282C388.565 266.749 382.398 251.668 382.398 251.668Z" fill="black"/>
<path d="M325.884 174.315C323.014 174.431 316.815 175.45 320.03 182.428C322.872 188.603 327.648 184.476 330.335 181.344C329.68 178.424 328.086 175.909 325.884 174.315V174.315Z" fill="#FFB0B1"/>
<path d="M330.371 181.289L330.49 181.146L330.371 181.289Z" fill="#FFB0B1"/>
<path opacity="0.1" d="M376.69 131.613C373.646 134.034 371.093 136.077 370.594 136.501C369.231 137.678 366.63 144.582 364.954 148.105C363.618 150.942 359.278 151.67 357.641 151.85L357.851 149.743C361.573 147.806 364.423 141.635 364.423 141.635L371.779 126.627L374.312 129.307C374.312 129.307 375.263 130.229 376.69 131.613Z" fill="black"/>
<path d="M376.69 131.336C373.646 133.757 371.093 135.8 370.594 136.229C369.231 137.401 366.63 144.305 364.954 147.829C363.618 150.665 359.278 151.394 357.641 151.574L357.851 149.466C361.573 147.529 364.423 141.358 364.423 141.358L371.779 126.35L374.312 129.021C374.312 129.021 375.263 129.934 376.69 131.336Z" fill="#DCE7FF"/>
<path d="M370.832 119.585C370.834 122.353 370.112 125.057 368.763 127.337C367.169 130.034 364.798 131.976 362.079 132.812C359.36 133.648 356.474 133.323 353.944 131.894C351.414 130.466 349.407 128.029 348.289 125.027C347.171 122.025 347.014 118.655 347.848 115.53C348.682 112.405 350.451 109.732 352.835 107.995C355.218 106.257 358.057 105.572 360.838 106.062C363.618 106.553 366.155 108.187 367.989 110.668C369.823 113.149 370.831 116.312 370.832 119.585V119.585Z" fill="#FFB0B1"/>
<path opacity="0.1" d="M391.348 165.589C389.738 164.437 388.427 162.799 387.555 160.848C386.893 159.326 386.453 157.569 385.323 156.49C384.304 155.521 382.945 155.286 381.676 154.853C377.507 153.418 374.011 148.991 373.88 143.936C373.816 141.556 374.455 139.181 374.165 136.824C374.001 135.49 373.545 134.228 372.841 133.158C372.492 132.646 372.109 132.166 371.696 131.723C371.141 131.115 370.558 130.524 370.051 129.879C369.731 129.479 369.452 129.038 369.219 128.564C369.03 128.177 368.877 127.767 368.763 127.342C367.97 124.519 368.691 121.171 367.819 118.316L367.772 118.16C367.443 117.145 366.773 116.13 365.842 116.052C364.91 115.973 364.113 116.873 363.226 117.274C361.367 118.113 359.361 116.684 357.811 115.226C356.261 113.769 354.513 112.104 352.544 112.427C351.239 112.644 350.209 113.677 349.008 114.212C348.737 114.334 348.457 114.428 348.172 114.493C349.188 111.544 351.055 109.098 353.453 107.577C355.851 106.056 358.629 105.553 361.31 106.156C363.991 106.759 366.408 108.43 368.146 110.881C369.884 113.333 370.833 116.412 370.832 119.589C370.833 120.549 370.747 121.506 370.574 122.444C370.594 122.509 370.614 122.569 370.638 122.633C371.097 124.017 371.617 125.437 372.072 126.664L374.312 129.025C374.312 129.025 375.263 129.948 376.69 131.331C379.794 134.375 385.156 139.734 387.923 143.014C390.357 145.91 391.118 157.136 391.348 165.589Z" fill="black"/>
<path d="M348.869 105.786C349.436 104.443 349.717 102.94 350.395 101.667C351.39 99.8222 353.126 98.6415 354.91 97.9267C359.567 96.0588 369.409 93.347 372.35 97.9267C372.929 98.8491 373.408 99.8729 374.209 100.509C374.819 100.994 375.557 101.201 376.226 101.566C378.101 102.589 379.298 104.822 379.936 107.1C380.575 109.378 380.765 111.823 381.233 114.17C381.831 117.182 382.881 120.037 383.928 122.873C385.16 126.221 386.469 129.694 388.847 132.06C392.093 135.289 392.81 139.859 395.823 143.401C399.39 147.607 399.275 154.548 397.436 160.06C397.194 160.784 396.921 161.54 397.016 162.31C397.111 163.08 397.602 163.781 398.066 164.395L400.016 166.955C395.403 168.251 390.182 165.446 388.034 160.525C387.372 159.003 386.932 157.251 385.799 156.167C384.784 155.199 383.42 154.968 382.156 154.534C377.986 153.095 374.49 148.663 374.36 143.609C374.296 141.233 374.934 138.858 374.645 136.506C374.484 135.163 374.026 133.892 373.317 132.816C372.227 131.161 370.582 130.049 369.694 128.204C368.192 125.119 369.334 121.111 368.252 117.8C367.919 116.785 367.253 115.771 366.321 115.692C365.39 115.614 364.593 116.513 363.701 116.914C361.846 117.754 359.841 116.329 358.291 114.867C356.741 113.405 354.993 111.744 353.019 112.072C351.715 112.284 350.689 113.317 349.488 113.857C348.6 114.253 346.8 114.608 346.023 113.737C344.382 111.979 348.184 107.427 348.869 105.786Z" fill="#591D4B"/>
<path opacity="0.1" d="M389.136 159.003C388.47 157.481 388.034 155.729 386.901 154.65C385.886 153.681 384.522 153.446 383.254 153.012C379.088 151.578 375.592 147.146 375.457 142.091C375.394 139.716 376.032 137.336 375.747 134.984C375.581 133.65 375.124 132.388 374.419 131.318C373.325 129.662 371.68 128.55 370.796 126.706C369.294 123.625 370.435 119.617 369.349 116.301C369.02 115.291 368.351 114.276 367.423 114.193C366.496 114.11 365.691 115.019 364.803 115.42C362.948 116.259 360.939 114.83 359.393 113.372C357.847 111.915 356.091 110.25 354.121 110.573C352.817 110.79 351.786 111.823 350.589 112.358C349.702 112.754 347.898 113.114 347.121 112.242C345.488 110.398 349.289 105.855 349.971 104.222C350.538 102.875 350.819 101.376 351.501 100.104C351.537 100.034 351.576 99.9652 351.616 99.896C351.106 100.388 350.666 100.97 350.312 101.621C349.634 102.894 349.353 104.388 348.786 105.739C348.1 107.372 344.299 111.929 345.936 113.76C346.729 114.636 348.512 114.276 349.4 113.88C350.589 113.34 351.628 112.307 352.932 112.095C354.914 111.767 356.658 113.432 358.204 114.89C359.749 116.347 361.771 117.777 363.618 116.937C364.506 116.536 365.283 115.632 366.234 115.715C367.185 115.798 367.819 116.808 368.164 117.823C369.246 121.134 368.105 125.142 369.607 128.228C370.495 130.04 372.14 131.175 373.23 132.84C373.939 133.915 374.397 135.186 374.558 136.529C374.847 138.881 374.209 141.256 374.272 143.632C374.403 148.705 377.899 153.119 382.069 154.557C383.325 154.991 384.697 155.222 385.711 156.19C386.849 157.274 387.297 159.027 387.947 160.548C390.095 165.469 395.315 168.274 399.929 166.978L399.009 165.769C395.01 165.838 390.963 163.191 389.136 159.003Z" fill="black"/>
<path opacity="0.1" d="M361.811 137.954C361.291 138.877 359.805 143.599 358.564 147.722C357.403 147.197 356.349 143.844 356.349 143.844L362.54 133.596C363.174 134.611 362.758 136.294 361.811 137.954Z" fill="black"/>
<path d="M362.048 137.678C361.529 138.6 360.043 143.323 358.802 147.446C357.641 146.925 356.586 143.567 356.586 143.567L362.778 133.324C363.412 134.334 362.996 136.022 362.048 137.678Z" fill="#DCE7FF"/>
<path d="M326.05 184.794L322.618 172.198C322.577 172.051 322.562 171.896 322.573 171.741C322.584 171.587 322.621 171.437 322.683 171.299C322.744 171.162 322.828 171.039 322.929 170.94C323.031 170.84 323.149 170.765 323.276 170.718V170.718C323.531 170.625 323.808 170.654 324.046 170.797C324.283 170.94 324.462 171.187 324.544 171.484L327.977 184.065L327.636 186.699L326.05 184.794Z" fill="#BE8B87"/>
<path opacity="0.1" d="M322.943 171.092C323.199 170.997 323.477 171.025 323.715 171.168C323.954 171.312 324.133 171.56 324.215 171.857L327.648 184.439L327.39 186.413L327.64 186.717L327.981 184.084L324.528 171.502C324.446 171.206 324.267 170.959 324.03 170.815C323.792 170.672 323.515 170.644 323.26 170.736V170.736C323.045 170.818 322.86 170.98 322.733 171.198C322.8 171.156 322.871 171.12 322.943 171.092V171.092Z" fill="white"/>
<path d="M326.05 184.794L327.977 184.084L327.695 186.242L327.636 186.717L327.073 186.034L326.05 184.794Z" fill="#EFC8C4"/>
<path d="M327.073 186.034C327.107 185.985 327.148 185.944 327.196 185.914C327.224 185.894 327.256 185.883 327.289 185.883C327.322 185.883 327.354 185.894 327.382 185.914C327.409 185.952 327.432 185.994 327.45 186.039C327.476 186.09 327.512 186.133 327.554 186.166C327.597 186.199 327.645 186.22 327.695 186.228L327.636 186.689L327.073 186.034Z" fill="#727A9C"/>
<path d="M322.598 176.672C322.598 176.672 329.483 176.626 327.862 180.034C326.241 183.442 323.708 183.853 323.708 183.853L322.598 176.672Z" fill="#FFB0B1"/>
<path d="M279.779 23.7149H279.481C267.654 23.7149 257.194 30.9973 251.177 41.7433C245.16 30.9973 234.7 23.7149 222.873 23.7149H222.575C213.699 23.8134 205.215 27.9838 198.966 35.32C192.718 42.6562 189.21 52.5653 189.205 62.8939C189.205 75.7199 194.033 93.9189 203.447 108.894C221.382 137.429 251.177 162.393 251.177 162.393C251.177 162.393 280.972 137.433 298.903 108.894C308.321 93.9189 313.145 75.7199 313.145 62.8939C313.14 52.5661 309.633 42.6577 303.385 35.3216C297.137 27.9855 288.654 23.8146 279.779 23.7149V23.7149ZM275.526 111.089C274.179 111.083 272.865 110.604 271.756 109.713C270.648 108.822 269.797 107.563 269.315 106.099H262.243C261.778 106.096 261.325 105.923 260.947 105.606C260.57 105.288 260.287 104.842 260.139 104.328L257.967 96.7137L251.094 124.658C250.96 125.196 250.68 125.669 250.295 126.006C249.911 126.342 249.443 126.525 248.961 126.526H248.823C248.32 126.497 247.842 126.27 247.467 125.88C247.091 125.491 246.843 124.963 246.761 124.386L239.678 74.8159L234.502 104.148C234.383 104.706 234.108 105.2 233.719 105.554C233.33 105.908 232.851 106.1 232.358 106.099H222.397C222.098 106.114 221.8 106.058 221.521 105.935C221.241 105.812 220.986 105.625 220.77 105.385C220.554 105.144 220.382 104.855 220.265 104.535C220.148 104.215 220.087 103.871 220.087 103.523C220.087 103.176 220.148 102.831 220.265 102.512C220.382 102.192 220.554 101.903 220.77 101.662C220.986 101.422 221.241 101.234 221.521 101.111C221.8 100.989 222.098 100.933 222.397 100.948H230.614L237.946 61.5103C238.067 60.9272 238.357 60.4109 238.769 60.0496C239.18 59.6883 239.686 59.5045 240.201 59.5296C240.716 59.5546 241.208 59.787 241.592 60.187C241.976 60.587 242.228 61.1297 242.306 61.7225L249.54 112.288L255.699 87.2868C255.828 86.7602 256.099 86.2961 256.473 85.9636C256.846 85.6311 257.302 85.4481 257.773 85.442H257.816C258.282 85.4422 258.736 85.6135 259.113 85.9315C259.49 86.2495 259.772 86.698 259.917 87.213L263.845 100.961H269.227C269.61 99.6085 270.307 98.405 271.24 97.4836C272.174 96.5622 273.308 95.9589 274.517 95.7401C275.727 95.5213 276.965 95.6956 278.094 96.2438C279.224 96.792 280.202 97.6927 280.919 98.8466C281.637 100 282.067 101.363 282.161 102.783C282.255 104.203 282.01 105.625 281.454 106.894C280.897 108.162 280.05 109.227 279.006 109.971C277.962 110.714 276.762 111.108 275.538 111.108L275.526 111.089Z" fill="#404040"/>
</g>
<defs>
<linearGradient id="paint0_linear_4_248" x1="141.237" y1="357.37" x2="141.237" y2="73.5753" gradientUnits="userSpaceOnUse">
<stop stop-color="#808080" stop-opacity="0.25"/>
<stop offset="0.54" stop-color="#808080" stop-opacity="0.12"/>
<stop offset="1" stop-color="#808080" stop-opacity="0.1"/>
</linearGradient>
<linearGradient id="paint1_linear_4_248" x1="354.125" y1="353.782" x2="354.125" y2="94.5876" gradientUnits="userSpaceOnUse">
<stop stop-color="#808080" stop-opacity="0.25"/>
<stop offset="0.54" stop-color="#808080" stop-opacity="0.12"/>
<stop offset="1" stop-color="#808080" stop-opacity="0.1"/>
</linearGradient>
<clipPath id="clip0_4_248">
<rect width="438" height="361" fill="white"/>
</clipPath>
</defs>
</svg>
